<svg width="52" height="48" viewBox="0 0 52 48" fill="none" xmlns="http://www.w3.org/2000/svg">
<path d="M49.1563 11.3898H40.6252C40.4767 11.3897 40.331 11.4304 40.2039 11.5074C40.0768 11.5845 39.9733 11.6949 39.9045 11.8267L38.4355 14.6441H36.5026C36.3436 13.364 35.7707 12.1711 34.8712 11.2476C33.9718 10.324 32.7953 9.72056 31.5213 9.52922C31.3651 8.22442 30.7843 7.00738 29.8687 6.0659C28.9748 5.13037 27.7892 4.52776 26.5074 4.35743C26.3551 3.28487 25.8676 2.28811 25.1148 1.50997C24.6583 1.0321 24.1097 0.651907 23.5022 0.392374C22.8947 0.132842 22.241 -0.00063878 21.5805 2.29829e-06H17.4206C16.2149 0.0141745 15.0543 0.461507 14.1503 1.26053C13.2463 2.05956 12.659 3.15713 12.4953 4.35336C11.2141 4.52405 10.0291 5.12663 9.13567 6.06183C8.21916 7.00419 7.63784 8.22238 7.48145 9.52841C6.2038 9.70454 5.02261 10.3064 4.12832 11.2369C3.21658 12.1852 2.64037 13.4066 2.48791 14.714C1.86807 14.814 1.29486 15.1052 0.848308 15.5471C0.570141 15.8364 0.352021 16.1781 0.206563 16.5523C0.0611056 16.9266 -0.00880163 17.326 0.000885079 17.7275C0.00231394 18.1497 0.0894834 18.5672 0.257093 18.9546C0.424703 19.342 0.669251 19.6912 0.975869 19.981L12.6448 30.934L10.5047 33.0769C9.61876 32.7228 8.67342 32.5413 7.7195 32.5424C6.19291 32.5424 4.70059 32.9957 3.43127 33.8449C2.16195 34.6942 1.17263 35.9012 0.58843 37.3135C0.00422597 38.7257 -0.148628 40.2798 0.149196 41.779C0.447021 43.2782 1.18215 44.6554 2.26162 45.7363C3.34108 46.8172 4.71641 47.5533 6.21368 47.8515C7.71094 48.1497 9.2629 47.9967 10.6733 47.4117C12.0837 46.8267 13.2892 45.8361 14.1373 44.5651C14.9854 43.2941 15.4381 41.7998 15.4381 40.2712C15.4391 39.3157 15.258 38.3689 14.9043 37.4815L16.587 35.7966H17.358L21.2255 44.0884C21.7715 45.2558 22.638 46.2436 23.7238 46.9362C24.8096 47.6289 26.0699 47.9979 27.3573 48C29.1516 47.9976 30.8717 47.2829 32.1404 46.0125C33.4091 44.742 34.1229 43.0197 34.1253 41.223V35.1824L43.555 17.0847H49.1563C49.9105 17.0847 50.6338 16.7847 51.1671 16.2507C51.7004 15.7167 52 14.9925 52 14.2373C52 13.4821 51.7004 12.7578 51.1671 12.2238C50.6338 11.6898 49.9105 11.3898 49.1563 11.3898ZM8.24762 11.1051C8.4631 11.1051 8.66976 11.0194 8.82213 10.8668C8.9745 10.7142 9.06011 10.5073 9.06011 10.2915C9.05278 9.13622 9.49891 8.02426 10.3024 7.19512C10.683 6.79533 11.1408 6.47713 11.6479 6.2598C12.155 6.04248 12.7009 5.93057 13.2525 5.93085C13.468 5.93085 13.6747 5.84513 13.8271 5.69256C13.9794 5.53999 14.065 5.33306 14.065 5.11729C14.0489 4.20923 14.3931 3.33183 15.0222 2.67755C15.6512 2.02326 16.5138 1.6455 17.4206 1.62712H21.5805C22.0227 1.62715 22.4603 1.717 22.8669 1.89123C23.2734 2.06547 23.6404 2.32047 23.9457 2.64082C24.5878 3.30436 24.9448 4.19335 24.9402 5.11729C24.9402 5.33306 25.0258 5.53999 25.1781 5.69256C25.3305 5.84513 25.5372 5.93085 25.7526 5.93085C26.3048 5.93058 26.8512 6.04281 27.3587 6.26072C27.8661 6.47862 28.324 6.79765 28.7044 7.19837C29.5069 8.02608 29.9524 9.13635 29.9451 10.2899C29.9451 10.5057 30.0307 10.7126 30.183 10.8652C30.3354 11.0177 30.5421 11.1035 30.7576 11.1035C31.7466 11.1206 32.6983 11.4842 33.4475 12.131C34.1966 12.7779 34.6957 13.667 34.8582 14.6441H4.1405C4.29259 13.7891 4.69469 12.9986 5.29586 12.3726C5.67728 11.9732 6.13534 11.6551 6.64257 11.4372C7.14979 11.2194 7.69572 11.1065 8.24762 11.1051ZM13.8132 40.2712C13.8132 41.478 13.4558 42.6577 12.7862 43.6611C12.1166 44.6645 11.1649 45.4466 10.0514 45.9084C8.93797 46.3702 7.71274 46.4911 6.53069 46.2556C5.34864 46.0202 4.26286 45.4391 3.41065 44.5857C2.55843 43.7324 1.97807 42.6452 1.74295 41.4616C1.50782 40.278 1.6285 39.0511 2.08971 37.9362C2.55092 36.8212 3.33196 35.8683 4.33406 35.1978C5.33615 34.5273 6.51429 34.1695 7.7195 34.1695C8.2261 34.1703 8.73057 34.2351 9.22098 34.3623L5.78822 37.8004C5.20625 38.3855 4.87837 39.1769 4.8758 40.0027C4.87666 40.8288 5.20479 41.6209 5.78818 42.2051C6.37158 42.7892 7.16258 43.1178 7.98762 43.1186C8.8123 43.116 9.60265 42.7877 10.187 42.205L13.6206 38.7669C13.7476 39.2583 13.8123 39.7637 13.8132 40.2712ZM16.2506 34.1695C16.0351 34.1695 15.8285 34.2553 15.6762 34.4079L9.03817 41.0546C8.75468 41.3246 8.37843 41.4751 7.98722 41.4751C7.59601 41.4751 7.21975 41.3246 6.93627 41.0546C6.79774 40.9171 6.68791 40.7533 6.61315 40.5729C6.53838 40.3924 6.50019 40.1989 6.50077 40.0035C6.50227 39.609 6.65904 39.2311 6.93708 38.9516L14.1495 31.7288H30.0629C30.2056 31.729 30.3459 31.6914 30.4696 31.62C30.5932 31.5486 30.6959 31.4458 30.7673 31.322L33.0999 27.2542C33.2077 27.0672 33.2368 26.8449 33.1809 26.6363C33.125 26.4278 32.9886 26.25 32.8018 26.1421C32.6149 26.0342 32.393 26.0051 32.1847 26.0611C31.9764 26.1171 31.7988 26.2536 31.6911 26.4407L29.5924 30.1017H14.1341L2.08654 18.7932C1.94155 18.6555 1.82598 18.4897 1.74679 18.306C1.66761 18.1222 1.62647 17.9243 1.62586 17.7242C1.60993 17.3434 1.74551 16.9718 2.00285 16.691C2.34825 16.3934 2.79608 16.2428 3.25083 16.2712H37.5231L33.5574 23.1864C33.4496 23.3735 33.4205 23.5958 33.4764 23.8043C33.5324 24.0129 33.6687 24.1907 33.8556 24.2986C34.0424 24.4065 34.2644 24.4356 34.4726 24.3796C34.6809 24.3236 34.8585 24.1871 34.9662 24L39.6462 15.8343L40.6731 13.8663L42.1307 16.2988L32.8213 34.1695H16.2506ZM28.4379 35.7966V41.1091C28.4381 41.3789 28.3472 41.6409 28.1799 41.8523C28.0125 42.0638 27.7787 42.2124 27.5163 42.2738C27.254 42.3353 26.9786 42.3061 26.7349 42.191C26.4913 42.0758 26.2937 41.8815 26.1743 41.6396L23.2526 35.7966H28.4379ZM30.9891 44.8645C30.5141 45.3449 29.9483 45.7257 29.3248 45.9846C28.7012 46.2436 28.0324 46.3756 27.3573 46.3729C26.3791 46.3713 25.4216 46.091 24.5967 45.5647C23.7717 45.0384 23.1133 44.288 22.6985 43.4009L19.152 35.7966H21.4359L24.7208 42.3677C25.0038 42.9375 25.4709 43.3948 26.0462 43.6654C26.6215 43.9359 27.2712 44.0038 27.8899 43.8581C28.5086 43.7123 29.0599 43.3615 29.4544 42.8624C29.8488 42.3634 30.0633 41.7456 30.0629 41.1091V35.7966H32.5003V41.223C32.5029 41.9001 32.3705 42.571 32.111 43.1962C31.8516 43.8215 31.4701 44.3887 30.9891 44.8645ZM50.02 15.1021C49.9067 15.2156 49.772 15.3055 49.6237 15.3665C49.4755 15.4276 49.3166 15.4585 49.1563 15.4576H43.5225L42.06 13.0169H49.1563C49.4795 13.0169 49.7895 13.1455 50.0181 13.3744C50.2466 13.6032 50.375 13.9136 50.375 14.2373C50.3745 14.561 50.247 14.8716 50.02 15.1021Z" fill="#A97C52"/>
</svg>
