<svg width="31" height="31" viewBox="0 0 31 31" fill="none" xmlns="http://www.w3.org/2000/svg">
<g clip-path="url(#clip0_33_2400)">
<path d="M27.5556 5.1665H3.44445C2.98769 5.1665 2.54964 5.34795 2.22666 5.67093C1.90368 5.99391 1.72223 6.43196 1.72223 6.88873V24.1109C1.72223 24.5677 1.90368 25.0058 2.22666 25.3287C2.54964 25.6517 2.98769 25.8332 3.44445 25.8332H27.5556C28.0123 25.8332 28.4504 25.6517 28.7734 25.3287C29.0963 25.0058 29.2778 24.5677 29.2778 24.1109V6.88873C29.2778 6.43196 29.0963 5.99391 28.7734 5.67093C28.4504 5.34795 28.0123 5.1665 27.5556 5.1665ZM26.2295 24.1109H4.8739L10.9017 17.8765L9.66167 16.6796L3.44445 23.1121V8.19762L14.1481 18.8496C14.4707 19.1703 14.9072 19.3504 15.3622 19.3504C15.8172 19.3504 16.2537 19.1703 16.5764 18.8496L27.5556 7.93067V23.0001L21.2178 16.6623L20.0036 17.8765L26.2295 24.1109ZM4.57251 6.88873H26.1606L15.3622 17.6268L4.57251 6.88873Z" fill="white"/>
</g>
<defs>
<clipPath id="clip0_33_2400">
<rect width="31" height="31" fill="white"/>
</clipPath>
</defs>
</svg>
