<svg width="32" height="32" viewBox="0 0 32 32" fill="none" xmlns="http://www.w3.org/2000/svg">
<g clip-path="url(#clip0_33_2383)">
<path d="M17.7811 0C17.4441 0 17.171 0.27312 17.171 0.610111C17.171 0.947102 17.4441 1.22022 17.7811 1.22022C24.5283 1.22022 30.0174 6.70955 30.0174 13.4565C30.0174 13.7935 30.2908 14.0666 30.6275 14.0666C30.9645 14.0666 31.2377 13.7935 31.2377 13.4565C31.2377 6.03676 25.2011 0 17.7811 0Z" fill="white"/>
<path d="M26.9573 14.0671C27.2943 14.0671 27.5675 13.7937 27.5675 13.457C27.5675 8.06059 23.1773 3.67041 17.7811 3.67041C17.4441 3.67041 17.171 3.94377 17.171 4.28052C17.171 4.61751 17.4441 4.89063 17.7811 4.89063C22.5045 4.89063 26.3472 8.73338 26.3472 13.457C26.3472 13.7937 26.6204 14.0671 26.9573 14.0671Z" fill="white"/>
<path d="M22.6763 13.4567C22.6763 13.7935 22.9494 14.0668 23.2864 14.0668C23.6234 14.0668 23.8965 13.7935 23.8965 13.4567C23.8965 10.0847 21.1532 7.34131 17.7811 7.34131C17.4441 7.34131 17.171 7.61443 17.171 7.95118C17.171 8.28817 17.4441 8.56129 17.7811 8.56129C20.4804 8.56129 22.6763 10.7572 22.6763 13.4567Z" fill="white"/>
<path d="M17.171 11.6218C17.171 11.9586 17.4441 12.2317 17.7811 12.2317C18.4565 12.2317 19.0061 12.7813 19.0061 13.4569C19.0061 13.7937 19.2792 14.067 19.6162 14.067C19.953 14.067 20.2263 13.7937 20.2263 13.4569C20.2263 12.1085 19.1293 11.0117 17.7811 11.0117C17.4441 11.0117 17.171 11.2848 17.171 11.6218Z" fill="white"/>
<path d="M11.4351 19.8093C11.4351 20.1463 11.162 20.4194 10.825 20.4194C10.488 20.4194 10.2149 20.1463 10.2149 19.8093C10.2149 19.4726 10.488 19.1992 10.825 19.1992C11.162 19.1992 11.4351 19.4726 11.4351 19.8093Z" fill="white"/>
<path d="M16.719 30.4972C19.4971 31.8587 22.8394 31.2922 25.0362 29.0953L26.2977 27.8339C26.9826 27.1497 26.9829 26.0412 26.2979 25.3565L21.4237 20.4828C20.74 19.7981 19.6313 19.7971 18.9468 20.4825L16.8758 22.5538C16.4701 22.9594 15.8441 23.0421 15.3874 22.7507C14.6429 22.2747 13.9186 21.7499 13.2349 21.1908C12.9739 20.9775 12.5897 21.0161 12.3764 21.2769C12.1631 21.5378 12.2017 21.9222 12.4625 22.1353C13.1829 22.7244 13.9458 23.2774 14.7306 23.7788C15.666 24.3763 16.9311 24.224 17.7385 23.4165L19.81 21.345C20.0171 21.1377 20.3527 21.1372 20.5607 21.3453L25.4352 26.2192C25.6428 26.4271 25.6433 26.7631 25.4352 26.9707L24.1735 28.2326C22.3434 30.0627 19.5636 30.5324 17.2559 29.4016C8.80181 25.2559 4.20215 18.6825 1.83225 13.8979C0.698536 11.6097 1.16923 8.84037 3.00361 7.00647L4.23766 5.77266C4.44452 5.56532 4.78032 5.5646 4.98814 5.7729L9.86307 10.6476C10.0695 10.8537 10.0716 11.1898 9.86259 11.3983L7.79155 13.4696C6.98411 14.277 6.83182 15.5421 7.4293 16.4777C7.7813 17.0285 8.16072 17.5719 8.55729 18.0926C8.7613 18.3607 9.14404 18.4124 9.41216 18.2084C9.68027 18.0044 9.73223 17.6217 9.52799 17.3533C9.15191 16.8593 8.79156 16.3435 8.45743 15.8209C8.16596 15.364 8.24866 14.738 8.65429 14.3323L10.7251 12.2615C11.4098 11.5778 11.4105 10.4688 10.7256 9.78462L5.85111 4.9104C5.1676 4.2257 4.05867 4.22474 3.37444 4.91016L2.14088 6.14373C-0.0641026 8.348 -0.627502 11.6819 0.738813 14.4396C3.19284 19.3936 7.95695 26.2007 16.719 30.4972Z" fill="white"/>
</g>
<defs>
<clipPath id="clip0_33_2383">
<rect width="31.2377" height="31.2377" fill="white"/>
</clipPath>
</defs>
</svg>
