<svg width="51" height="51" viewBox="0 0 51 51" fill="none" xmlns="http://www.w3.org/2000/svg">
<g clip-path="url(#clip0_38_3689)">
<path d="M49.8366 26.5079L37.8486 26.6975C37.9168 17.8663 40.3793 16.825 43.4872 16.4897L44.685 16.3204L44.5346 6.61318L43.1523 6.70998C39.0918 7.00532 34.61 7.81669 31.6702 11.6034C29.0932 14.9229 28.0176 20.2965 28.145 28.5174L28.3811 43.7507L50.0985 43.4071L49.8366 26.5079Z" fill="#A97C52"/>
<path d="M22.3901 43.8455L22.1282 26.9463L10.3002 27.1334C10.3683 18.3022 12.7507 17.2621 15.8586 16.9269L16.9766 16.7588L16.8262 7.0516L15.5238 7.14713C11.4632 7.44247 6.94124 8.25448 4.00143 12.0412C1.42467 15.3607 0.309204 20.735 0.436595 28.9558L0.672651 44.1891L22.3901 43.8455Z" fill="#A97C52"/>
</g>
<defs>
<clipPath id="clip0_38_3689">
<rect width="49.432" height="49.9471" fill="white" transform="matrix(-0.999875 0.0158188 -0.0154942 -0.99988 50.1998 49.9411)"/>
</clipPath>
</defs>
</svg>
