<svg width="144" height="129" viewBox="0 0 144 129" fill="none" xmlns="http://www.w3.org/2000/svg">
<g clip-path="url(#clip0_31_2246)">
<path d="M10.8554 120.566C10.8554 121.908 10.6182 123.032 10.1414 123.939C9.66459 124.846 8.96791 125.511 8.04642 125.933L10.7911 129H7.69561L5.60557 126.44H5.42523C3.67859 126.44 2.33711 125.933 1.4008 124.918C0.464482 123.905 -0.00244141 122.447 -0.00244141 120.549C-0.00244141 118.651 0.466952 117.201 1.40574 116.2C2.34453 115.199 3.68847 114.697 5.44252 114.697C7.19657 114.697 8.53558 115.201 9.46201 116.21C10.3909 117.218 10.8554 118.671 10.8554 120.561V120.566ZM2.53475 120.566C2.53475 121.841 2.77686 122.8 3.26108 123.445C3.74529 124.09 4.46668 124.411 5.43017 124.411C7.35962 124.411 8.32311 123.129 8.32311 120.566C8.32311 118.004 7.36456 116.714 5.44499 116.714C4.48397 116.714 3.75765 117.037 3.26849 117.685C2.77933 118.332 2.53475 119.294 2.53475 120.566Z" fill="white"/>
<path d="M24.1689 126.284H21.4167L19.8727 120.292C19.8159 120.079 19.7171 119.637 19.5812 118.97C19.4453 118.302 19.3638 117.853 19.344 117.623C19.3119 117.905 19.2353 118.354 19.1093 118.977C18.9833 119.6 18.8894 120.042 18.8203 120.307L17.2836 126.282H14.5389L11.6287 114.875H14.0077L15.4653 121.1C15.7198 122.249 15.9051 123.245 16.0187 124.087C16.0508 123.791 16.1225 123.331 16.2337 122.711C16.3448 122.091 16.4511 121.606 16.5499 121.263L18.2101 114.873H20.4953L22.1554 121.263C22.2271 121.55 22.3185 121.987 22.4297 122.573C22.5384 123.161 22.6223 123.665 22.6792 124.085C22.7311 123.68 22.815 123.173 22.9287 122.568C23.0423 121.962 23.1461 121.473 23.24 121.097L24.6902 114.873H27.0692L24.1689 126.279V126.284Z" fill="white"/>
<path d="M34.8463 126.284L34.0187 123.568H29.8608L29.0332 126.284H26.4293L30.4538 114.831H33.4109L37.4502 126.284H34.8463ZM33.443 121.542C32.6797 119.081 32.2473 117.692 32.151 117.368C32.0546 117.045 31.9855 116.79 31.9435 116.605C31.773 117.27 31.2814 118.918 30.4686 121.542H33.4406H33.443Z" fill="white"/>
<path d="M47.8806 116.728C46.9715 116.728 46.2649 117.069 45.7659 117.754C45.2668 118.438 45.0173 119.39 45.0173 120.613C45.0173 123.156 45.9709 124.428 47.8806 124.428C48.6811 124.428 49.652 124.228 50.7909 123.828V125.857C49.8545 126.247 48.8095 126.442 47.6558 126.442C45.9981 126.442 44.7283 125.938 43.8488 124.932C42.9693 123.927 42.5295 122.481 42.5295 120.598C42.5295 119.412 42.7445 118.374 43.1768 117.482C43.6091 116.59 44.2292 115.905 45.0371 115.431C45.8449 114.954 46.7936 114.717 47.8806 114.717C48.9676 114.717 50.1016 114.984 51.2183 115.52L50.4376 117.487C50.0102 117.284 49.5828 117.106 49.1505 116.956C48.7181 116.805 48.2957 116.728 47.8782 116.728H47.8806Z" fill="white"/>
<path d="M60.952 121.908C60.952 123.329 60.5765 124.438 59.8279 125.239C59.0793 126.039 58.0368 126.44 56.7003 126.44C55.8628 126.44 55.1241 126.257 54.4842 125.891C53.8444 125.525 53.3527 124.997 53.0093 124.312C52.6659 123.625 52.4955 122.825 52.4955 121.91C52.4955 120.484 52.8661 119.377 53.6097 118.587C54.3533 117.796 55.3983 117.4 56.7447 117.4C57.5822 117.4 58.3209 117.583 58.9608 117.947C59.6006 118.31 60.0922 118.834 60.4356 119.513C60.779 120.195 60.9495 120.993 60.9495 121.908H60.952ZM54.924 121.908C54.924 122.77 55.0648 123.425 55.3489 123.865C55.633 124.307 56.0925 124.527 56.7324 124.527C57.3722 124.527 57.8219 124.307 58.101 123.867C58.3802 123.427 58.5185 122.775 58.5185 121.905C58.5185 121.035 58.3777 120.395 58.0986 119.963C57.8169 119.53 57.3574 119.316 56.7176 119.316C56.0777 119.316 55.6256 119.53 55.344 119.958C55.0623 120.388 54.924 121.035 54.924 121.905V121.908Z" fill="white"/>
<path d="M70.9649 126.284H68.5858V121.191C68.5858 120.561 68.4747 120.089 68.2498 119.775C68.025 119.461 67.6693 119.303 67.1801 119.303C66.5155 119.303 66.0338 119.526 65.7373 119.97C65.4409 120.415 65.2927 121.152 65.2927 122.182V126.287H62.9136V117.566H64.7319L65.0505 118.68H65.184C65.4483 118.258 65.8139 117.942 66.2809 117.724C66.7453 117.509 67.2765 117.4 67.8669 117.4C68.8798 117.4 69.6506 117.675 70.1743 118.223C70.7006 118.772 70.9624 119.565 70.9624 120.598V126.287L70.9649 126.284Z" fill="white"/>
<path d="M79.498 123.694C79.498 124.589 79.1867 125.271 78.5667 125.738C77.9441 126.205 77.0152 126.44 75.7775 126.44C75.1426 126.44 74.6015 126.398 74.1544 126.311C73.7072 126.225 73.2897 126.099 72.8993 125.933V123.966C73.3416 124.174 73.8381 124.349 74.394 124.49C74.9474 124.631 75.4365 124.7 75.8565 124.7C76.7187 124.7 77.1511 124.451 77.1511 123.951C77.1511 123.764 77.0942 123.613 76.9806 123.494C76.867 123.378 76.6693 123.245 76.3877 123.096C76.106 122.948 75.733 122.775 75.2636 122.577C74.5916 122.296 74.1 122.036 73.7863 121.797C73.4725 121.557 73.2427 121.283 73.0995 120.974C72.9562 120.665 72.8845 120.284 72.8845 119.832C72.8845 119.056 73.1859 118.458 73.7863 118.033C74.3866 117.608 75.2389 117.398 76.3407 117.398C77.4426 117.398 78.4135 117.628 79.4066 118.085L78.6902 119.8C78.2529 119.612 77.8453 119.459 77.4648 119.34C77.0844 119.222 76.699 119.16 76.3037 119.16C75.6021 119.16 75.2513 119.35 75.2513 119.731C75.2513 119.943 75.3649 120.129 75.5897 120.284C75.817 120.44 76.3111 120.672 77.0745 120.979C77.7563 121.255 78.2554 121.512 78.5716 121.75C78.8878 121.989 79.1225 122.264 79.2732 122.577C79.4239 122.889 79.5005 123.262 79.5005 123.692L79.498 123.694Z" fill="white"/>
<path d="M85.0293 124.544C85.4444 124.544 85.9434 124.453 86.5265 124.272V126.044C85.9335 126.309 85.2047 126.442 84.3425 126.442C83.3914 126.442 82.6972 126.202 82.2649 125.721C81.8301 125.239 81.6127 124.517 81.6127 123.556V119.35H80.4738V118.344L81.7831 117.549L82.4699 115.708H83.9917V117.563H86.4326V119.35H83.9917V123.556C83.9917 123.894 84.0856 124.144 84.2758 124.305C84.4661 124.465 84.7156 124.547 85.0293 124.547V124.544Z" fill="white"/>
<path d="M93.1548 117.398C93.4785 117.398 93.7453 117.42 93.9577 117.467L93.7774 119.699C93.5847 119.647 93.35 119.619 93.0758 119.619C92.3173 119.619 91.7244 119.815 91.302 120.205C90.877 120.596 90.667 121.142 90.667 121.844V126.282H88.288V117.561H90.089L90.4398 119.026H90.5559C90.8252 118.537 91.1908 118.144 91.6528 117.845C92.1123 117.546 92.6138 117.398 93.1548 117.398Z" fill="white"/>
<path d="M101.718 126.284L101.399 125.17H101.275C101.021 125.575 100.66 125.889 100.191 126.109C99.7239 126.329 99.1902 126.44 98.5924 126.44C97.5671 126.44 96.7963 126.165 96.2751 125.617C95.7563 125.068 95.4944 124.28 95.4944 123.25V117.564H97.8735V122.656C97.8735 123.287 97.9846 123.759 98.2095 124.072C98.4343 124.386 98.79 124.544 99.2792 124.544C99.9437 124.544 100.425 124.322 100.722 123.877C101.018 123.432 101.167 122.696 101.167 121.666V117.561H103.546V126.282H101.72L101.718 126.284Z" fill="white"/>
<path d="M109.581 126.44C106.866 126.44 105.51 124.95 105.51 121.97C105.51 120.487 105.878 119.355 106.617 118.572C107.355 117.788 108.413 117.398 109.791 117.398C110.799 117.398 111.706 117.596 112.506 117.991L111.805 119.832C111.429 119.681 111.081 119.558 110.76 119.461C110.438 119.365 110.115 119.318 109.794 119.318C108.556 119.318 107.938 120.198 107.938 121.955C107.938 123.712 108.556 124.512 109.794 124.512C110.251 124.512 110.676 124.451 111.066 124.329C111.456 124.208 111.847 124.016 112.237 123.756V125.792C111.852 126.037 111.464 126.205 111.071 126.299C110.678 126.393 110.184 126.44 109.586 126.44H109.581Z" fill="white"/>
<path d="M117.926 124.544C118.341 124.544 118.841 124.453 119.424 124.272V126.044C118.831 126.309 118.102 126.442 117.24 126.442C116.289 126.442 115.594 126.202 115.162 125.721C114.727 125.239 114.51 124.517 114.51 123.556V119.35H113.371V118.344L114.68 117.549L115.367 115.708H116.889V117.563H119.33V119.35H116.889V123.556C116.889 123.894 116.983 124.144 117.173 124.305C117.363 124.465 117.613 124.547 117.926 124.547V124.544Z" fill="white"/>
<path d="M121.084 115.307C121.084 114.531 121.516 114.146 122.378 114.146C123.24 114.146 123.673 114.534 123.673 115.307C123.673 115.676 123.564 115.965 123.349 116.17C123.134 116.375 122.811 116.479 122.378 116.479C121.516 116.479 121.084 116.088 121.084 115.307ZM123.564 126.284H121.185V117.564H123.564V126.284Z" fill="white"/>
<path d="M133.985 121.908C133.985 123.329 133.609 124.438 132.861 125.239C132.112 126.039 131.069 126.44 129.733 126.44C128.895 126.44 128.157 126.257 127.519 125.891C126.88 125.525 126.388 124.997 126.045 124.312C125.701 123.625 125.531 122.825 125.531 121.91C125.531 120.484 125.901 119.377 126.645 118.587C127.388 117.796 128.433 117.4 129.78 117.4C130.617 117.4 131.356 117.583 131.996 117.947C132.636 118.31 133.127 118.834 133.471 119.513C133.814 120.195 133.985 120.993 133.985 121.908ZM127.957 121.908C127.957 122.77 128.097 123.425 128.382 123.865C128.666 124.307 129.128 124.527 129.765 124.527C130.402 124.527 130.855 124.307 131.134 123.867C131.413 123.427 131.551 122.775 131.551 121.905C131.551 121.035 131.41 120.395 131.129 119.963C130.847 119.53 130.388 119.316 129.748 119.316C129.108 119.316 128.656 119.53 128.374 119.958C128.093 120.388 127.954 121.035 127.954 121.905L127.957 121.908Z" fill="white"/>
<path d="M144 126.284H141.621V121.191C141.621 120.561 141.51 120.089 141.285 119.775C141.06 119.461 140.704 119.303 140.218 119.303C139.553 119.303 139.071 119.526 138.775 119.97C138.478 120.415 138.33 121.152 138.33 122.182V126.287H135.951V117.566H137.769L138.088 118.68H138.222C138.486 118.258 138.852 117.942 139.318 117.724C139.783 117.509 140.314 117.4 140.905 117.4C141.917 117.4 142.688 117.675 143.212 118.223C143.738 118.772 144 119.565 144 120.598V126.287V126.284Z" fill="white"/>
<path d="M3.2067 105.351C3.2067 105.969 3.056 106.453 2.75707 106.802C2.45814 107.15 2.03816 107.323 1.49959 107.323C1.01043 107.323 0.508921 107.18 0 106.896V108.514C0.587977 108.828 1.19078 108.986 1.81087 108.986C2.76201 108.986 3.52786 108.658 4.10596 108C4.73346 107.294 5.04721 106.372 5.04721 105.233V99.6108L3.20917 100.597V105.351H3.2067Z" fill="#03362D"/>
<path d="M31.7557 103.901C31.4172 103.592 31.2492 103.167 31.2492 102.628C31.2492 102.156 31.3851 101.783 31.6544 101.501C31.9237 101.222 32.2844 101.081 32.7365 101.081C33.5789 101.081 34.3596 101.504 35.076 102.346V100.713C34.4287 99.811 33.5814 99.3587 32.5314 99.3587C31.7557 99.3587 31.0763 99.6034 30.4858 100.095C29.7595 100.703 29.3964 101.528 29.3964 102.566C29.3964 103.224 29.5347 103.822 29.8089 104.363H20.3791C20.006 104.363 19.7392 104.281 19.5761 104.121C19.4131 103.96 19.334 103.686 19.334 103.305V102.878C19.334 101.877 19.1092 101.069 18.6571 100.449C18.1186 99.722 17.3527 99.3587 16.362 99.3587C15.49 99.3587 14.7933 99.638 14.272 100.196C13.6741 100.834 13.3752 101.726 13.3752 102.875V103.303C13.3752 103.686 13.2962 103.957 13.1405 104.118C12.9824 104.281 12.7181 104.36 12.345 104.36H10.5786C10.2056 104.36 9.94123 104.279 9.78312 104.118C9.62501 103.957 9.54843 103.683 9.54843 103.303V96.6504L7.69556 97.6215V103.389C7.69556 104.165 7.90555 104.798 8.328 105.287C8.81716 105.855 9.5089 106.139 10.4032 106.139H12.5204C13.2171 106.139 13.8001 105.959 14.272 105.596C14.7809 106.154 15.4776 106.434 16.362 106.434C17.2465 106.434 17.9209 106.154 18.4521 105.596C18.9017 105.959 19.4823 106.139 20.1888 106.139H35.7826V104.358H33.149C32.5611 104.358 32.0966 104.202 31.7581 103.893L31.7557 103.901ZM16.3596 104.659C15.6036 104.659 15.2256 104.051 15.2256 102.836C15.2256 101.62 15.6036 101.084 16.3596 101.084C17.1155 101.084 17.4787 101.667 17.4787 102.836C17.4787 104.004 17.1057 104.659 16.3596 104.659Z" fill="#03362D"/>
<path d="M43.5029 103.07C43.5029 103.542 43.4065 103.876 43.2163 104.071C43.0261 104.269 42.7024 104.365 42.2528 104.365H41.5314V98.5679L39.6785 99.5539V104.365H37.7367L36.8103 106.147H42.3566C43.2385 106.147 43.95 105.887 44.4886 105.366C45.0667 104.798 45.3557 104.037 45.3557 103.085V96.6553L43.5029 97.6412V103.07Z" fill="#03362D"/>
<path d="M47.9893 106.144H49.8446V96.6528L47.9893 97.6388V106.144Z" fill="#03362D"/>
<path d="M56.8312 105.351C56.8312 105.969 56.6805 106.453 56.3816 106.802C56.0827 107.15 55.6627 107.323 55.1241 107.323C54.6349 107.323 54.1334 107.18 53.6245 106.896V108.514C54.2125 108.828 54.8153 108.986 55.4354 108.986C56.3865 108.986 57.1524 108.658 57.7305 108C58.358 107.294 58.6717 106.372 58.6717 105.233V99.6108L56.8337 100.597V105.351H56.8312Z" fill="#03362D"/>
<path d="M76.5161 98.3158C77.1535 98.3158 77.4721 97.9872 77.4721 97.3299C77.4721 97.0358 77.3857 96.8035 77.2152 96.6305C77.0447 96.4576 76.8101 96.3735 76.5161 96.3735C76.2221 96.3735 75.9997 96.4625 75.8169 96.6379C75.6366 96.8159 75.5452 97.0457 75.5452 97.3299C75.5452 97.614 75.6341 97.8612 75.8095 98.044C75.9849 98.2269 76.2221 98.3158 76.5161 98.3158Z" fill="#03362D"/>
<path d="M74.2655 98.3158C74.9028 98.3158 75.2215 97.9872 75.2215 97.3299C75.2215 97.0358 75.1351 96.8035 74.9646 96.6305C74.7941 96.46 74.5594 96.3735 74.2655 96.3735C73.9715 96.3735 73.7368 96.4625 73.5589 96.6379C73.3835 96.8159 73.2946 97.0457 73.2946 97.3299C73.2946 97.6338 73.3835 97.8735 73.5589 98.0514C73.7343 98.2269 73.9715 98.3158 74.2655 98.3158Z" fill="#03362D"/>
<path d="M88.4906 107.484C88.1966 107.484 87.9619 107.573 87.784 107.748C87.6086 107.924 87.5197 108.156 87.5197 108.44C87.5197 108.744 87.6086 108.984 87.784 109.162C87.9619 109.337 88.1966 109.426 88.4906 109.426C89.1279 109.426 89.4466 109.098 89.4466 108.44C89.4466 108.146 89.3602 107.911 89.1897 107.741C89.0192 107.568 88.7845 107.484 88.4906 107.484Z" fill="#03362D"/>
<path d="M87.7271 103.305C87.7271 103.688 87.6481 103.96 87.4924 104.121C87.3343 104.284 87.07 104.363 86.6969 104.363H78.1046C77.7315 104.363 77.4672 104.281 77.3091 104.121C77.1534 103.96 77.0744 103.686 77.0744 103.305V99.6108L75.2215 100.582V103.305C75.2215 103.688 75.1424 103.96 74.9868 104.121C74.8287 104.284 74.5643 104.363 74.1913 104.363H72.588C72.2149 104.363 71.9481 104.281 71.7875 104.121C71.6269 103.96 71.5454 103.686 71.5454 103.305V103.246C71.5454 101.981 71.0538 101.014 70.0755 100.347C69.5369 99.9641 68.8797 99.7343 68.104 99.6552L70.782 96.6528H68.9143L65.9275 99.979V101.761C66.476 101.565 67.0022 101.467 67.5012 101.467C68.1584 101.467 68.687 101.632 69.0897 101.958C69.4924 102.287 69.6925 102.722 69.6925 103.261V103.35C69.6925 104.027 69.3491 104.365 68.6623 104.365H64.2056C63.8325 104.365 63.5682 104.284 63.4101 104.123C63.252 103.962 63.1754 103.688 63.1754 103.308V96.6553L61.3225 97.6265V103.394C61.3225 104.17 61.5325 104.803 61.955 105.292C62.4441 105.86 63.1358 106.144 64.0302 106.144H68.855C69.5715 106.144 70.1644 105.954 70.6363 105.571C71.0958 105.954 71.6862 106.144 72.4027 106.144H74.3741C75.0906 106.144 75.6835 105.954 76.1553 105.571C76.6272 105.954 77.2201 106.144 77.9366 106.144H86.8822C87.6579 106.144 88.2854 105.924 88.7647 105.482C89.3132 104.983 89.5874 104.286 89.5874 103.392V99.6108L87.7345 100.582V103.305H87.7271Z" fill="#03362D"/>
<path d="M92.2284 106.144H94.0813V96.6528L92.2284 97.6388V106.144Z" fill="#03362D"/>
<path d="M99.2323 99.3609C98.38 99.3609 97.6932 99.6352 97.1719 100.184C96.5839 100.802 96.2899 101.652 96.2899 102.729C96.2899 103.535 96.5098 104.219 96.952 104.79C97.4906 105.467 98.212 105.806 99.1137 105.806C99.4373 105.806 99.7511 105.776 100.055 105.717C99.9364 106.747 99.4027 107.261 98.4516 107.261C97.9229 107.261 97.3918 107.108 96.8631 106.804V108.408C97.451 108.741 98.0538 108.907 98.6715 108.907C99.6523 108.907 100.428 108.593 100.996 107.965C101.604 107.298 101.908 106.386 101.908 105.227V102.079C101.908 101.303 101.698 100.676 101.275 100.196C100.784 99.6376 100.104 99.3584 99.2298 99.3584L99.2323 99.3609ZM100.07 103.937C99.8944 104.133 99.6078 104.231 99.2174 104.231C98.4714 104.231 98.1008 103.713 98.1008 102.672C98.1008 102.183 98.2021 101.795 98.4022 101.511C98.6023 101.227 98.8815 101.083 99.2323 101.083C99.7906 101.083 100.07 101.407 100.07 102.054V103.937Z" fill="#03362D"/>
<path d="M111.236 97.8315C111.874 97.8315 112.192 97.5028 112.192 96.8455C112.192 96.5514 112.106 96.3191 111.935 96.1462C111.763 95.9756 111.53 95.8892 111.236 95.8892C110.589 95.8892 110.265 96.2079 110.265 96.8455C110.265 97.1494 110.354 97.3891 110.53 97.567C110.705 97.745 110.942 97.8315 111.236 97.8315Z" fill="#03362D"/>
<path d="M108.971 97.8315C109.608 97.8315 109.927 97.5028 109.927 96.8455C109.927 96.5514 109.841 96.3191 109.67 96.1462C109.497 95.9756 109.265 95.8892 108.971 95.8892C108.324 95.8892 108 96.2079 108 96.8455C108 97.1494 108.089 97.3891 108.264 97.567C108.44 97.745 108.677 97.8315 108.971 97.8315Z" fill="#03362D"/>
<path d="M125.375 107.484C124.728 107.484 124.404 107.803 124.404 108.44C124.404 108.744 124.493 108.984 124.668 109.162C124.844 109.337 125.081 109.426 125.375 109.426C126.012 109.426 126.331 109.098 126.331 108.44C126.331 108.146 126.245 107.911 126.074 107.741C125.904 107.568 125.669 107.484 125.375 107.484Z" fill="#03362D"/>
<path d="M127.64 107.484C126.993 107.484 126.67 107.803 126.67 108.44C126.67 108.744 126.758 108.984 126.934 109.162C127.109 109.337 127.346 109.426 127.64 109.426C128.278 109.426 128.597 109.098 128.597 108.44C128.597 108.146 128.51 107.911 128.34 107.741C128.169 107.568 127.934 107.484 127.64 107.484Z" fill="#03362D"/>
<path d="M143.353 100.199C142.873 99.6404 142.196 99.3611 141.322 99.3611C140.447 99.3611 139.778 99.6354 139.247 100.184C138.659 100.812 138.365 101.667 138.365 102.744C138.365 103.392 138.513 103.93 138.807 104.363H129.184C128.811 104.363 128.547 104.281 128.389 104.121C128.233 103.96 128.154 103.686 128.154 103.305V99.6107L126.301 100.582V103.305C126.301 103.688 126.222 103.96 126.067 104.121C125.909 104.284 125.644 104.363 125.271 104.363H123.52C123.147 104.363 122.88 104.281 122.719 104.121C122.559 103.96 122.477 103.686 122.477 103.305V102.878C122.477 101.877 122.252 101.069 121.8 100.448C121.262 99.7219 120.496 99.3587 119.505 99.3587C118.633 99.3587 117.936 99.6379 117.415 100.196C116.817 100.834 116.518 101.726 116.518 102.875V103.303C116.518 103.686 116.439 103.957 116.284 104.118C116.125 104.281 115.861 104.36 115.488 104.36H113.722C113.349 104.36 113.082 104.279 112.921 104.118C112.758 103.957 112.679 103.683 112.679 103.303V98.4023L110.841 99.3735V99.7565C110.537 99.6181 110.204 99.5514 109.84 99.5514C109.144 99.5514 108.531 99.8059 108.002 100.317C107.375 100.925 107.061 101.716 107.061 102.687C107.061 103.473 107.281 104.145 107.723 104.704C108.262 105.381 108.983 105.719 109.885 105.719C110.493 105.719 111.007 105.559 111.429 105.233C111.931 105.84 112.635 106.144 113.549 106.144H115.668C116.365 106.144 116.948 105.964 117.42 105.601C117.929 106.159 118.626 106.438 119.51 106.438C120.394 106.438 121.069 106.159 121.6 105.601C122.05 105.964 122.63 106.144 123.337 106.144H125.456C126.173 106.144 126.766 105.954 127.238 105.571C127.71 105.954 128.302 106.144 129.019 106.144H141.305C142.127 106.144 142.78 105.9 143.261 105.408C143.75 104.916 144.002 104.251 144.012 103.406V102.082C144.012 101.306 143.797 100.678 143.365 100.199H143.353ZM109.986 104.143C109.643 104.143 109.374 104.014 109.176 103.76C108.978 103.505 108.882 103.162 108.882 102.729C108.882 102.297 108.983 101.948 109.183 101.684C109.383 101.42 109.648 101.286 109.971 101.286C110.295 101.286 110.584 101.395 110.839 101.61V103.392C110.839 103.56 110.843 103.681 110.853 103.76C110.648 104.014 110.359 104.143 109.986 104.143ZM119.505 104.659C118.749 104.659 118.374 104.051 118.374 102.836C118.374 101.62 118.752 101.084 119.505 101.084C120.259 101.084 120.624 101.667 120.624 102.836C120.624 104.004 120.251 104.659 119.505 104.659ZM142.145 103.421C142.145 104.049 141.856 104.363 141.277 104.363C140.551 104.363 140.188 103.804 140.188 102.685C140.188 101.565 140.566 101.081 141.319 101.081C141.868 101.081 142.142 101.405 142.142 102.052V103.421H142.145Z" fill="#03362D"/>
<path d="M142.468 98.3158C143.106 98.3158 143.424 97.9872 143.424 97.3299C143.424 97.0358 143.338 96.8035 143.167 96.6305C142.995 96.46 142.762 96.3735 142.468 96.3735C141.821 96.3735 141.497 96.6923 141.497 97.3299C141.497 97.6338 141.586 97.8735 141.762 98.0514C141.937 98.2269 142.174 98.3158 142.468 98.3158Z" fill="#03362D"/>
<path d="M140.203 98.3158C140.84 98.3158 141.159 97.9872 141.159 97.3299C141.159 97.0358 141.072 96.8035 140.902 96.6305C140.732 96.4576 140.497 96.3735 140.203 96.3735C139.556 96.3735 139.232 96.6923 139.232 97.3299C139.232 97.6338 139.321 97.8735 139.496 98.0514C139.672 98.2269 139.909 98.3158 140.203 98.3158Z" fill="#03362D"/>
<path d="M128.567 61.6244C127.668 60.7521 118.984 52.5059 118.08 51.641C109.722 43.6395 100.831 35.1315 92.4631 27.1399V26.4035C92.4804 21.696 92.4631 16.2348 92.4853 11.5273H91.7219C91.7219 11.5273 87.6135 11.5224 85.5605 11.5273C85.3703 11.5273 84.9108 11.5273 84.9108 11.5273V19.8525C80.6319 15.748 76.3555 11.6459 71.916 7.38818V18.738C78.5616 24.9776 86.5858 32.6307 93.2042 38.8999C98.6393 44.0497 112.467 57.1665 117.892 62.3286L118.628 62.3336C118.628 62.3336 123.572 62.3336 126.052 62.3336H129.296L128.569 61.6293L128.567 61.6244Z" fill="#03362D"/>
<path d="M113.855 43.8201C113.756 47.6553 113.2 51.535 112.106 55.0563C109.942 62.0447 106.211 68.089 100.875 73.098C92.9523 80.5336 83.5076 84.2848 72.6547 84.5245C72.5213 84.5269 72.4101 84.5343 72.1483 84.5245V83.326C72.1483 81.6654 72.1754 80.0073 72.1359 78.3516L72.1285 77.4249C77.4895 77.4249 83.1148 76.2017 87.7988 73.827L90.7511 72.1812L92.9745 70.6466C100.747 65.0743 105.91 56.3141 106.982 45.9107C107.019 45.5326 107.264 42.6983 107.022 40.0715L107.17 40.0319L107.059 39.9232C107.034 39.5402 107.007 39.0583 106.96 38.6802C105.725 28.4621 101.28 20.641 93.2586 14.2952V10.6849H87.4283C82.638 8.29529 77.3091 7.2426 72.0124 7.10421V7.11657C65.4508 7.26978 58.2987 9.11076 52.8389 12.7507C43.4906 18.973 38.3692 27.785 36.9116 38.7049C36.8598 39.0929 36.8301 39.5377 36.8054 39.9281L30.1351 46.3802C29.6286 40.8548 30.0634 34.7734 31.7014 29.4975C33.8655 22.5067 37.596 16.4624 42.9322 11.4534C50.8551 4.01778 60.2998 0.266617 71.1527 0.0244472C71.2712 0.0219761 71.6344 0.0145628 71.8987 0.0219761V-0.000263978C72.1606 -0.00767734 72.5386 0.00220714 72.6745 0.00714939C83.5249 0.246848 92.9696 3.99801 100.895 11.4336C106.231 16.4426 109.957 22.4869 112.126 29.4753C113.512 33.953 114.035 39.0163 113.853 43.8201H113.855Z" fill="#03362D"/>
<path d="M107.684 62.2447H106.683C100.969 62.2472 95.2548 62.2373 89.5406 62.2447C85.3333 62.2521 76.9361 62.2447 76.9361 62.2447L76.027 62.2546L74.2433 62.2447C74.2433 62.2447 65.3742 53.7539 61.7179 50.2943C61.5227 50.109 61.3103 49.9336 61.0509 49.7062C59.907 50.7811 58.7978 51.8264 57.6935 52.8692C54.5213 55.8544 50.912 59.2695 47.725 62.2447H36.1458L36.1582 62.2323H26.0885C26.0885 62.2323 26.0786 62.2422 26.0761 62.2447H25.288C22.1283 62.2175 18.971 62.2447 15.8162 62.2447H14.7069L15.5419 61.3847C19.0994 57.9968 22.6372 54.5916 26.1947 51.2111L26.7728 50.6947V50.6872L34.1423 43.5581C46.7492 31.4767 59.3462 19.4078 71.8889 7.3833V9.26383C71.8889 12.2193 71.8914 18.1253 71.8914 18.1253V18.7307C61.5301 28.5929 50.6451 38.9173 40.2691 48.7647C38.305 50.6255 36.2125 52.6098 34.1052 54.6089H44.0662C49.7261 49.1527 55.3712 43.7113 61.0163 38.2699C62.0415 39.2459 63.0322 40.1874 64.0204 41.1314C68.5439 45.4633 73.5787 50.2943 78.1244 54.6015H78.8508C78.8508 54.6015 84.313 54.6262 87.0429 54.6237C87.2801 54.6237 87.5148 54.5966 87.9347 54.5669C87.6333 54.2457 87.4604 54.048 87.2702 53.8676C82.344 49.1996 76.8324 43.9806 71.8889 39.3275L71.8815 38.5096C71.9037 35.3317 71.8914 32.1489 71.8914 28.9686V27.9282C83.73 39.2756 95.6896 50.7367 107.686 62.2373L107.684 62.2447Z" fill="#A97C52"/>
<path d="M42.0923 72.3293C41.9293 72.2058 41.786 72.0797 41.6649 71.9562C40.9188 71.1951 40.6224 70.345 40.7731 69.401C40.8966 68.6474 41.2869 67.953 41.9391 67.3129C42.7519 66.5148 43.6166 66.0922 44.5356 66.0453C45.383 65.9958 46.1241 66.2973 46.764 66.9497C47.5052 67.7059 47.772 68.5881 47.562 69.5963C47.4014 70.3846 46.9839 71.1086 46.3119 71.7684C45.3484 72.7123 44.3306 73.088 43.2559 72.8927C43.2139 73.5229 43.1769 74.2049 43.1447 74.9364L41.9787 73.7478L42.0923 72.3269V72.3293ZM42.5197 71.1185C43.2806 71.8944 44.1972 71.756 45.2694 70.7058C45.8499 70.1374 46.1859 69.5864 46.2847 69.0551C46.3663 68.5683 46.2378 68.1531 45.8969 67.8047C45.5312 67.4316 45.094 67.2956 44.5826 67.397C44.0712 67.4983 43.5375 67.822 42.9792 68.3706C41.9095 69.4208 41.7563 70.3376 42.5222 71.1209L42.5197 71.1185Z" fill="#03362D"/>
<path d="M55.0723 73.3893C54.5461 75.3094 54.1335 76.8365 53.8395 77.9683L56.8758 74.4173L58.1506 75.1438L53.259 80.2788L52.2387 79.6981L53.3899 74.8225L49.7731 78.2945L48.7429 77.7063L50.707 70.9009L51.9719 71.6224L50.4451 76.0359C51.8384 74.6446 52.9526 73.5178 53.7852 72.6578L55.0698 73.3893H55.0723Z" fill="#A97C52"/>
<path d="M62.6221 76.4141L63.7807 76.7082L64.5466 84.0029L63.1458 83.6471C63.1162 83.2665 63.0841 82.7649 63.0544 82.1422L60.6605 81.5367C60.4826 81.8283 60.2133 82.2534 59.8551 82.8143L58.4741 82.4634L62.6196 76.4116L62.6221 76.4141ZM62.7555 78.3663C62.417 78.8729 61.9501 79.5845 61.3522 80.5013L62.9556 80.9066C62.8716 79.8539 62.8049 79.0063 62.758 78.3663H62.7555Z" fill="#03362D"/>
</g>
<defs>
<clipPath id="clip0_31_2246">
<rect width="144" height="129" fill="white"/>
</clipPath>
</defs>
</svg>
