<svg width="128" height="128" viewBox="0 0 128 128" fill="none" xmlns="http://www.w3.org/2000/svg">
<path d="M62.7751 72.1255C63.0721 72.4224 63.3895 72.7258 63.7185 73.0215C68.38 77.2735 74.284 79.9159 80.5606 80.5593C86.8372 81.2027 93.1545 79.8131 98.5818 76.5952V113.879C98.5801 115.364 97.9896 116.787 96.9398 117.837C95.89 118.887 94.4666 119.478 92.9818 119.48H17.5015C16.0171 119.478 14.5944 118.887 13.5451 117.837C12.4959 116.787 11.9057 115.363 11.9041 113.879V14.121C11.9057 12.6359 12.4964 11.2122 13.5465 10.1621C14.5966 9.11207 16.0203 8.52139 17.5053 8.5197H92.9818C94.4666 8.52174 95.89 9.11256 96.9398 10.1626C97.9896 11.2126 98.5801 12.6362 98.5818 14.121V26.0903C94.0294 23.3926 88.8348 21.9702 83.5431 21.9725C82.7085 21.9725 81.8727 22.0079 81.0356 22.0787C75.9105 22.5156 70.9902 24.291 66.767 27.2273C62.5438 30.1635 59.1659 34.1576 56.9716 38.8096C56.9626 38.8275 56.9549 38.8467 56.9473 38.8647C54.3877 44.3362 53.5737 50.4628 54.6158 56.4129C55.6579 62.363 58.5057 67.8483 62.7725 72.1242L62.7751 72.1255ZM42.3681 106.293H90.194C90.4751 106.293 90.7446 106.181 90.9434 105.982C91.1422 105.783 91.2538 105.514 91.2538 105.233C91.2538 104.952 91.1422 104.682 90.9434 104.483C90.7446 104.284 90.4751 104.173 90.194 104.173H42.3681C42.087 104.173 41.8174 104.284 41.6186 104.483C41.4199 104.682 41.3082 104.952 41.3082 105.233C41.3082 105.514 41.4199 105.783 41.6186 105.982C41.8174 106.181 42.087 106.293 42.3681 106.293ZM42.3681 89.7997H90.194C90.4751 89.7997 90.7446 89.688 90.9434 89.4893C91.1422 89.2905 91.2538 89.021 91.2538 88.7399C91.2538 88.4588 91.1422 88.1892 90.9434 87.9904C90.7446 87.7917 90.4751 87.68 90.194 87.68H42.3681C42.087 87.68 41.8174 87.7917 41.6186 87.9904C41.4199 88.1892 41.3082 88.4588 41.3082 88.7399C41.3082 89.021 41.4199 89.2905 41.6186 89.4893C41.8174 89.688 42.087 89.7997 42.3681 89.7997ZM36.6413 17.4669C36.6413 17.1858 36.5297 16.9162 36.3309 16.7175C36.1322 16.5187 35.8626 16.4071 35.5815 16.4071H20.2893C20.0081 16.4071 19.7384 16.5187 19.5395 16.7174C19.3405 16.9161 19.2286 17.1857 19.2282 17.4669V28.0666C19.2282 28.2059 19.2557 28.3438 19.309 28.4725C19.3624 28.6011 19.4405 28.718 19.5391 28.8165C19.6376 28.9149 19.7546 28.9929 19.8834 29.0461C20.0121 29.0993 20.15 29.1266 20.2893 29.1264H35.5751C35.7143 29.1266 35.8522 29.0993 35.9809 29.0461C36.1095 28.9929 36.2264 28.9148 36.3249 28.8164C36.4233 28.7179 36.5014 28.601 36.5546 28.4724C36.6078 28.3437 36.6351 28.2058 36.6349 28.0666L36.6413 17.4669ZM36.6413 33.961C36.6415 33.8217 36.6142 33.6837 36.561 33.555C36.5078 33.4263 36.4298 33.3093 36.3314 33.2107C36.2329 33.1122 36.116 33.034 35.9874 32.9807C35.8587 32.9273 35.7208 32.8999 35.5815 32.8999H20.2893C20.0079 32.8999 19.738 33.0117 19.539 33.2107C19.34 33.4097 19.2282 33.6796 19.2282 33.961V44.5594C19.2282 44.8408 19.34 45.1107 19.539 45.3097C19.738 45.5087 20.0079 45.6205 20.2893 45.6205H35.5751C35.7144 45.6205 35.8523 45.593 35.981 45.5397C36.1096 45.4864 36.2265 45.4082 36.325 45.3096C36.4234 45.2111 36.5014 45.0941 36.5546 44.9654C36.6078 44.8366 36.6351 44.6987 36.6349 44.5594L36.6413 33.961ZM36.6413 50.4538C36.6413 50.1727 36.5297 49.9031 36.3309 49.7044C36.1322 49.5056 35.8626 49.3939 35.5815 49.3939H20.2893C20.0081 49.3939 19.7384 49.5056 19.5395 49.7043C19.3405 49.903 19.2286 50.1726 19.2282 50.4538V61.056C19.2286 61.3372 19.3405 61.6068 19.5395 61.8055C19.7384 62.0042 20.0081 62.1159 20.2893 62.1159H35.5751C35.8562 62.1159 36.1258 62.0042 36.3245 61.8054C36.5233 61.6067 36.6349 61.3371 36.6349 61.056L36.6413 50.4538ZM36.6413 66.9466C36.6413 66.6655 36.5297 66.3959 36.3309 66.1972C36.1322 65.9984 35.8626 65.8867 35.5815 65.8867H20.2893C20.0081 65.8867 19.7384 65.9984 19.5395 66.1971C19.3405 66.3958 19.2286 66.6654 19.2282 66.9466V77.5463C19.2286 77.8275 19.3405 78.097 19.5395 78.2958C19.7384 78.4945 20.0081 78.6061 20.2893 78.6061H35.5751C35.8562 78.6061 36.1258 78.4944 36.3245 78.2957C36.5233 78.0969 36.6349 77.8274 36.6349 77.5463L36.6413 66.9466ZM36.6413 83.4407C36.6415 83.3014 36.6142 83.1634 36.561 83.0347C36.5078 82.906 36.4298 82.789 36.3314 82.6904C36.2329 82.5919 36.116 82.5137 35.9874 82.4603C35.8587 82.407 35.7208 82.3795 35.5815 82.3795H20.2893C20.0079 82.3795 19.738 82.4913 19.539 82.6903C19.34 82.8893 19.2282 83.1592 19.2282 83.4407V94.0391C19.2282 94.3205 19.34 94.5904 19.539 94.7894C19.738 94.9884 20.0079 95.1002 20.2893 95.1002H35.5751C35.7144 95.1002 35.8523 95.0727 35.981 95.0194C36.1096 94.966 36.2265 94.8879 36.325 94.7893C36.4234 94.6908 36.5014 94.5738 36.5546 94.445C36.6078 94.3163 36.6351 94.1784 36.6349 94.0391L36.6413 83.4407ZM36.6413 99.9335C36.6415 99.7942 36.6142 99.6563 36.561 99.5277C36.5078 99.399 36.4297 99.2821 36.3313 99.1837C36.2328 99.0852 36.1159 99.0072 35.9873 98.954C35.8586 98.9008 35.7207 98.8735 35.5815 98.8736H20.2893C20.15 98.8735 20.0121 98.9007 19.8834 98.9539C19.7546 99.0071 19.6376 99.0852 19.5391 99.1836C19.4405 99.282 19.3624 99.3989 19.309 99.5276C19.2557 99.6563 19.2282 99.7942 19.2282 99.9335V110.533C19.2286 110.814 19.3405 111.084 19.5395 111.283C19.7384 111.481 20.0081 111.593 20.2893 111.593H35.5751C35.8562 111.593 36.1258 111.481 36.3245 111.283C36.5233 111.084 36.6349 110.814 36.6349 110.533L36.6413 99.9335ZM66.2772 23.8272C66.4164 23.8272 66.5542 23.7998 66.6828 23.7465C66.8113 23.6933 66.9282 23.6152 67.0266 23.5168C67.125 23.4184 67.2031 23.3016 67.2563 23.173C67.3096 23.0444 67.337 22.9066 67.337 22.7674C67.337 22.6282 67.3096 22.4904 67.2563 22.3618C67.2031 22.2332 67.125 22.1164 67.0266 22.018C66.9282 21.9195 66.8113 21.8415 66.6828 21.7882C66.5542 21.735 66.4164 21.7075 66.2772 21.7075H42.3681C42.2289 21.7075 42.0911 21.735 41.9625 21.7882C41.8339 21.8415 41.717 21.9195 41.6186 22.018C41.5202 22.1164 41.4422 22.2332 41.3889 22.3618C41.3356 22.4904 41.3082 22.6282 41.3082 22.7674C41.3082 22.9066 41.3356 23.0444 41.3889 23.173C41.4422 23.3016 41.5202 23.4184 41.6186 23.5168C41.717 23.6152 41.8339 23.6933 41.9625 23.7465C42.0911 23.7998 42.2289 23.8272 42.3681 23.8272H66.2772ZM54.4077 39.2615C54.4077 38.9803 54.2961 38.7106 54.0974 38.5116C53.8987 38.3126 53.6291 38.2007 53.3479 38.2003H42.3681C42.096 38.2137 41.8395 38.3312 41.6516 38.5285C41.4638 38.7258 41.359 38.9878 41.359 39.2602C41.359 39.5326 41.4638 39.7946 41.6516 39.9919C41.8395 40.1891 42.096 40.3066 42.3681 40.32H53.3543C53.634 40.3183 53.9018 40.2061 54.0991 40.0078C54.2965 39.8095 54.4074 39.5412 54.4077 39.2615ZM41.3018 55.7543C41.3018 56.0354 41.4135 56.3049 41.6122 56.5037C41.811 56.7024 42.0806 56.8141 42.3617 56.8141H51.689C51.8314 56.819 51.9733 56.7953 52.1063 56.7442C52.2392 56.6931 52.3606 56.6158 52.463 56.5169C52.5655 56.4179 52.647 56.2993 52.7026 56.1682C52.7583 56.0371 52.787 55.8961 52.787 55.7536C52.787 55.6112 52.7583 55.4702 52.7026 55.3391C52.647 55.2079 52.5655 55.0893 52.463 54.9904C52.3606 54.8914 52.2392 54.8141 52.1063 54.763C51.9733 54.712 51.8314 54.6882 51.689 54.6931H42.3681C42.2283 54.6925 42.0897 54.7194 41.9604 54.7724C41.8311 54.8255 41.7135 54.9035 41.6144 55.0021C41.5153 55.1007 41.4367 55.2179 41.3831 55.347C41.3294 55.4761 41.3018 55.6145 41.3018 55.7543ZM42.3681 71.1859C42.0932 71.1955 41.8327 71.3114 41.6417 71.5092C41.4506 71.7071 41.3438 71.9714 41.3438 72.2464C41.3438 72.5215 41.4506 72.7858 41.6417 72.9836C41.8327 73.1814 42.0932 73.2974 42.3681 73.3069H57.9341C58.209 73.2974 58.4694 73.1814 58.6605 72.9836C58.8516 72.7858 58.9584 72.5215 58.9584 72.2464C58.9584 71.9714 58.8516 71.7071 58.6605 71.5092C58.4694 71.3114 58.209 71.1955 57.9341 71.1859H42.3681Z" fill="#A97C52" fill-opacity="0.15"/>
<path d="M21.3491 27.0081V18.5293H34.5152V27.0081H21.3491ZM32.247 23.5981L25.7075 20.073C25.5745 20.0012 25.4276 19.9588 25.2767 19.9484C25.1259 19.9381 24.9746 19.9602 24.833 20.0132C24.6914 20.0661 24.5627 20.1488 24.4557 20.2556C24.3487 20.3624 24.2658 20.4909 24.2125 20.6324L23.1283 23.5175C23.0294 23.7806 23.039 24.0722 23.155 24.3282C23.2711 24.5842 23.4841 24.7837 23.7472 24.8826C24.0103 24.9816 24.3019 24.972 24.5579 24.8559C24.8139 24.7398 25.0134 24.5268 25.1123 24.2637L25.7702 22.5153L31.241 25.4593C31.3635 25.5253 31.4979 25.5666 31.6363 25.5807C31.7748 25.5949 31.9148 25.5816 32.0481 25.5417C32.1815 25.5017 32.3057 25.4359 32.4136 25.348C32.5215 25.26 32.6111 25.1517 32.6771 25.0292C32.7432 24.9066 32.7845 24.7723 32.7986 24.6338C32.8127 24.4953 32.7995 24.3554 32.7595 24.222C32.7196 24.0887 32.6538 23.9645 32.5658 23.8565C32.4779 23.7486 32.3696 23.6591 32.247 23.593V23.5981Z" fill="#A97C52" fill-opacity="0.15"/>
<path d="M21.3491 43.4995V35.0208H34.5152V43.4995H21.3491ZM32.247 40.0896L25.7075 36.5645C25.5531 36.4806 25.3802 36.4366 25.2045 36.4365C25.0776 36.4362 24.9518 36.4592 24.8333 36.5043C24.6915 36.5571 24.5626 36.6397 24.4555 36.7466C24.3484 36.8535 24.2655 36.9821 24.2125 37.1238L23.1283 40.0077C23.0793 40.1379 23.0565 40.2766 23.061 40.4157C23.0656 40.5548 23.0976 40.6916 23.155 40.8184C23.2125 40.9452 23.2944 41.0594 23.396 41.1545C23.4976 41.2496 23.6169 41.3238 23.7472 41.3728C23.8775 41.4218 24.0161 41.4447 24.1552 41.4401C24.2943 41.4355 24.4312 41.4035 24.5579 41.3461C24.6847 41.2886 24.7989 41.2067 24.894 41.1051C24.9891 41.0035 25.0633 40.8842 25.1123 40.7539L25.7702 39.0054L31.241 41.9494C31.3635 42.0155 31.4979 42.0568 31.6363 42.0709C31.7748 42.085 31.9148 42.0718 32.0481 42.0318C32.1815 41.9919 32.3057 41.9261 32.4136 41.8381C32.5215 41.7502 32.6111 41.6419 32.6771 41.5193C32.7432 41.3968 32.7845 41.2625 32.7986 41.124C32.8127 40.9855 32.7995 40.8456 32.7595 40.7122C32.7196 40.5788 32.6538 40.4546 32.5658 40.3467C32.4779 40.2388 32.3696 40.1493 32.247 40.0832V40.0896Z" fill="#A97C52" fill-opacity="0.15"/>
<path d="M21.3491 59.9937V51.5137H34.5152V59.9937H21.3491ZM32.247 56.5761L25.7075 53.0509C25.5743 52.9789 25.4272 52.9364 25.2762 52.9262C25.1251 52.9161 24.9736 52.9385 24.832 52.9921C24.6903 53.045 24.5616 53.1277 24.4545 53.2346C24.3474 53.3414 24.2645 53.47 24.2112 53.6116L23.127 56.4954C23.078 56.6257 23.0552 56.7643 23.0598 56.9034C23.0643 57.0425 23.0963 57.1794 23.1538 57.3061C23.2112 57.4329 23.2931 57.5471 23.3947 57.6422C23.4963 57.7374 23.6157 57.8115 23.7459 57.8605C23.8762 57.9095 24.0148 57.9324 24.1539 57.9278C24.2931 57.9232 24.4299 57.8913 24.5567 57.8338C24.6834 57.7763 24.7976 57.6945 24.8927 57.5929C24.9879 57.4913 25.062 57.3719 25.111 57.2417L25.769 55.4932L31.2397 58.4372C31.4846 58.5523 31.7644 58.5693 32.0215 58.4847C32.2786 58.4002 32.4936 58.2205 32.6225 57.9824C32.7513 57.7444 32.7842 57.4661 32.7144 57.2046C32.6446 56.9431 32.4774 56.7182 32.247 56.5761Z" fill="#A97C52" fill-opacity="0.15"/>
<path d="M21.3491 76.4865V68.0065H34.5152V76.4865H21.3491ZM32.247 73.0765L25.7075 69.5514C25.5745 69.4796 25.4276 69.4372 25.2767 69.4268C25.1259 69.4165 24.9746 69.4386 24.833 69.4916C24.6914 69.5445 24.5627 69.6272 24.4557 69.734C24.3487 69.8408 24.2658 69.9693 24.2125 70.1108L23.1283 72.9959C23.0793 73.1262 23.0565 73.2648 23.061 73.4039C23.0656 73.543 23.0976 73.6799 23.155 73.8066C23.2125 73.9334 23.2944 74.0476 23.396 74.1427C23.4976 74.2378 23.6169 74.312 23.7472 74.361C24.0103 74.46 24.3019 74.4504 24.5579 74.3343C24.8139 74.2182 25.0134 74.0052 25.1123 73.7421L25.7702 71.9937L31.241 74.9377C31.4884 75.0711 31.7788 75.1007 32.0481 75.0201C32.3174 74.9394 32.5437 74.7551 32.6771 74.5076C32.8105 74.2601 32.8402 73.9698 32.7595 73.7004C32.6789 73.4311 32.4945 73.2048 32.247 73.0714V73.0765Z" fill="#A97C52" fill-opacity="0.15"/>
<path d="M21.3491 92.9792V84.5005H34.5152V92.9792H21.3491ZM32.247 89.5693L25.7075 86.0442C25.5745 85.9724 25.4276 85.93 25.2767 85.9196C25.1259 85.9093 24.9746 85.9314 24.833 85.9844C24.6914 86.0373 24.5627 86.12 24.4557 86.2268C24.3487 86.3336 24.2658 86.4621 24.2125 86.6036L23.1283 89.4887C23.0793 89.619 23.0565 89.7576 23.061 89.8967C23.0656 90.0358 23.0976 90.1727 23.155 90.2994C23.2125 90.4262 23.2944 90.5404 23.396 90.6355C23.4976 90.7306 23.6169 90.8048 23.7472 90.8538C23.8775 90.9028 24.0161 90.9257 24.1552 90.9211C24.2943 90.9165 24.4312 90.8846 24.5579 90.8271C24.6847 90.7696 24.7989 90.6878 24.894 90.5862C24.9891 90.4845 25.0633 90.3652 25.1123 90.2349L25.7702 88.4864L31.241 91.4304C31.3635 91.4965 31.4979 91.5378 31.6363 91.5519C31.7748 91.5661 31.9148 91.5528 32.0481 91.5128C32.1815 91.4729 32.3057 91.4071 32.4136 91.3192C32.5215 91.2312 32.6111 91.1229 32.6771 91.0004C32.7432 90.8778 32.7845 90.7435 32.7986 90.605C32.8127 90.4665 32.7995 90.3266 32.7595 90.1932C32.7196 90.0599 32.6538 89.9357 32.5658 89.8277C32.4779 89.7198 32.3696 89.6303 32.247 89.5642V89.5693Z" fill="#A97C52" fill-opacity="0.15"/>
<path d="M21.3491 109.472V100.992H34.5152V109.472H21.3491ZM32.247 106.062L25.7075 102.537C25.5531 102.453 25.3802 102.409 25.2045 102.409C25.0776 102.409 24.9518 102.432 24.8333 102.477C24.6915 102.53 24.5626 102.612 24.4555 102.719C24.3484 102.826 24.2655 102.955 24.2125 103.096L23.1283 105.984C23.0294 106.247 23.039 106.539 23.155 106.795C23.2711 107.051 23.4841 107.25 23.7472 107.349C24.0103 107.448 24.3019 107.439 24.5579 107.322C24.8139 107.206 25.0134 106.993 25.1123 106.73L25.7702 104.982L31.241 107.926C31.4884 108.059 31.7788 108.089 32.0481 108.008C32.3174 107.928 32.5437 107.743 32.6771 107.496C32.8105 107.248 32.8402 106.958 32.7595 106.689C32.6789 106.419 32.4945 106.193 32.247 106.06V106.062Z" fill="#A97C52" fill-opacity="0.15"/>
<path d="M103.251 51.3446C103.258 46.802 101.69 42.3974 98.816 38.88C98.4013 38.368 97.9533 37.8777 97.4848 37.4093C89.8048 29.7293 77.2992 29.7293 69.6153 37.4093C68.8508 38.1738 68.15 38.9996 67.52 39.8784C64.9286 43.5133 63.6473 47.9199 63.8854 52.3775C64.1235 56.8352 65.8671 61.0802 68.8309 64.4183C71.7948 67.7564 75.8036 69.9902 80.2017 70.7542C84.5999 71.5183 89.1271 70.7675 93.0432 68.6246C93.1827 68.5478 93.3222 68.4685 93.4605 68.3878C93.5987 68.3072 93.7369 68.2253 93.8726 68.1408C94.0083 68.0563 94.1453 67.9705 94.2797 67.8848L94.4806 67.7568C94.6816 67.6224 94.8787 67.4841 95.0745 67.3433C95.2704 67.2025 95.4585 67.0566 95.6557 66.9069C95.8528 66.7571 96.0397 66.6048 96.2214 66.4486L96.4083 66.2886C96.512 66.2003 96.6144 66.1094 96.7155 66.0173L92.8627 62.1632C90.0649 64.5731 86.4417 65.8047 82.7548 65.5989C79.0678 65.3931 75.6042 63.766 73.092 61.0597C70.5797 58.3533 69.2144 54.7784 69.283 51.0864C69.3517 47.3944 70.8489 43.8727 73.46 41.2616C76.0711 38.6505 79.5928 37.1533 83.2848 37.0846C86.9768 37.016 90.5517 38.3813 93.2581 40.8936C95.9644 43.4058 97.5915 46.8694 97.7973 50.5564C98.0031 54.2433 96.7715 57.8665 94.3616 60.6643L98.2144 64.5171C98.4217 64.2867 98.6223 64.0529 98.816 63.8157C101.692 60.2966 103.259 55.8894 103.251 51.3446Z" fill="#A97C52" fill-opacity="0.15"/>
<path d="M92.1459 42.7521C90.4793 41.0867 88.3641 39.9421 86.0583 39.4579C83.7525 38.9736 81.3556 39.1706 79.1598 40.0249C76.964 40.8791 75.0641 42.3537 73.6918 44.2689C72.3194 46.1841 71.5338 48.4571 71.4308 50.811C71.3278 53.1648 71.9117 55.4978 73.1115 57.5256C74.3113 59.5534 76.0751 61.1883 78.1878 62.2311C80.3006 63.274 82.6711 63.6796 85.0104 63.3987C87.3497 63.1178 89.5568 62.1624 91.3626 60.649L87.4906 56.7809C86.1237 57.7716 84.4337 58.2109 82.7574 58.0113C81.0811 57.8116 79.5416 56.9876 78.4457 55.7036C77.3497 54.4195 76.7779 52.7696 76.8441 51.0828C76.9103 49.3959 77.6097 47.796 78.8029 46.6017C79.9961 45.4075 81.5955 44.7068 83.2823 44.6391C84.9691 44.5715 86.6194 45.1419 87.9044 46.2367C89.1894 47.3315 90.0147 48.8704 90.2158 50.5465C90.4169 52.2226 89.979 53.913 88.9895 55.2807L92.8627 59.154C94.8141 56.8248 95.8228 53.8495 95.6901 50.8138C95.5575 47.7781 94.2931 44.9021 92.1459 42.7521Z" fill="#A97C52" fill-opacity="0.15"/>
<path d="M86.8006 48.1011C86.1911 47.492 85.4223 47.0669 84.5824 46.8745C83.7424 46.6821 82.8653 46.7301 82.0514 47.0131C81.2375 47.2961 80.5197 47.8026 79.9803 48.4746C79.441 49.1466 79.1018 49.957 79.0016 50.8128C78.9014 51.6687 79.0443 52.5355 79.4139 53.3139C79.7835 54.0923 80.3648 54.7509 81.0914 55.2142C81.8179 55.6775 82.6603 55.9268 83.5219 55.9336C84.3836 55.9403 85.2298 55.7043 85.9635 55.2524L82.7238 52.0128C82.6254 51.9143 82.5473 51.7974 82.4941 51.6687C82.4409 51.54 82.4135 51.4021 82.4136 51.2629C82.4136 51.1236 82.4411 50.9858 82.4945 50.8571C82.5478 50.7285 82.6259 50.6117 82.7244 50.5133C82.8229 50.4148 82.9399 50.3368 83.0685 50.2836C83.1972 50.2303 83.3351 50.203 83.4743 50.203C83.6136 50.2031 83.7515 50.2306 83.8801 50.2839C84.0087 50.3372 84.1256 50.4154 84.224 50.5139L87.4637 53.7536C88.0042 52.8739 88.2328 51.8378 88.1125 50.8123C87.9922 49.7869 87.5301 48.8318 86.8006 48.1011Z" fill="#A97C52" fill-opacity="0.15"/>
<path d="M110.81 51.3459C110.822 47.7646 110.123 44.2165 108.754 40.9069C107.386 37.5974 105.374 34.5922 102.837 32.0653C101.672 30.901 100.405 29.8438 99.0516 28.9062L99.04 28.8986C93.4388 25.0401 86.5979 23.414 79.8596 24.3393C73.1213 25.2647 66.972 28.6747 62.6182 33.9002C58.2645 39.1258 56.0207 45.7897 56.327 52.5843C56.6333 59.379 59.4677 65.814 64.274 70.6266C64.5492 70.9018 64.8448 71.1834 65.1508 71.465C74.432 79.9642 88.6848 80.9434 99.04 73.7907C100.108 73.0541 101.121 72.2414 102.071 71.3587L98.898 68.1843L98.2221 67.5098C97.9712 67.7393 97.7152 67.9612 97.4541 68.1754C97.3927 68.2266 97.3261 68.2765 97.2711 68.3251L97.0612 68.4928L96.8615 68.649C96.7335 68.7526 96.594 68.8538 96.4596 68.9523L96.256 69.1021C95.6457 69.5405 95.013 69.9468 94.3604 70.3194C94.2874 70.3616 94.2157 70.4026 94.1428 70.4474L93.9239 70.5664C93.8509 70.6074 93.778 70.6458 93.7037 70.6842C93.6295 70.7226 93.5565 70.761 93.4823 70.7994L93.2596 70.9107C93.1853 70.9491 93.1111 70.985 93.0356 71.0208C92.9076 71.0835 92.7796 71.1488 92.6516 71.2038C92.0884 71.4598 91.5149 71.6928 90.9312 71.9027C90.77 71.9603 90.6074 72.0166 90.4436 72.0704C90.3552 72.0998 90.2656 72.1293 90.176 72.1562C90.0864 72.183 90.0173 72.2074 89.9367 72.2317C89.51 72.3605 89.077 72.477 88.6375 72.5811L88.4186 72.6323L88.3367 72.6502C88.1767 72.6861 88.0154 72.7194 87.8541 72.7514C87.6928 72.7834 87.52 72.8154 87.3511 72.8448H87.328C87.1514 72.8755 86.9748 72.9037 86.7981 72.9293C86.6855 72.9459 86.5728 72.9626 86.4589 72.9766L86.2656 73.001L86.0237 73.0304L85.8509 73.0483L85.5949 73.0726L85.3389 73.0944L85.0829 73.1136L84.8922 73.1264L84.6362 73.1392L84.3636 73.1507H84.1984C84.1524 73.1507 84.105 73.1507 84.0589 73.1507C83.8874 73.1507 83.7172 73.1571 83.5469 73.1571C78.0542 73.1614 72.7625 71.0914 68.7306 67.3612C64.6988 63.631 62.2243 58.5159 61.8023 53.0394C61.6501 51.0634 61.7659 49.0758 62.1466 47.1309C62.2004 46.8544 62.2605 46.5792 62.3245 46.3053C62.3578 46.167 62.3911 46.0314 62.4256 45.8944C62.4956 45.6222 62.5711 45.3508 62.6522 45.0803C62.6919 44.9459 62.7341 44.8115 62.7802 44.6771C62.8655 44.4083 62.9564 44.1417 63.0528 43.8771C63.2448 43.3472 63.4582 42.8254 63.6928 42.3117C63.9275 41.798 64.1797 41.2941 64.4493 40.8C64.5863 40.5517 64.7271 40.3059 64.8743 40.064C65.0215 39.8221 65.17 39.5827 65.3261 39.3459C65.4823 39.1091 65.6423 38.8762 65.8074 38.6445C67.6534 36.0705 70.0371 33.9287 72.7932 32.3674C75.5492 30.8062 78.6118 29.863 81.7687 29.603C84.9255 29.343 88.1012 29.7726 91.0755 30.862C94.0498 31.9513 96.7517 33.6743 98.994 35.9117C99.506 36.4301 100.009 36.9779 100.469 37.5398C107.008 45.5386 107.008 57.152 100.463 65.152C100.225 65.4421 99.9779 65.7289 99.721 66.0122L103.571 69.8624C108.245 64.8318 110.833 58.2128 110.81 51.3459Z" fill="#A97C52" fill-opacity="0.15"/>
<path d="M118.168 81.0497C118.108 81.2356 117.998 81.4012 117.849 81.5284C117.701 81.6555 117.52 81.7393 117.327 81.7703L114.443 82.2349L113.98 85.1201C113.948 85.3118 113.864 85.4911 113.737 85.6384C113.611 85.7856 113.446 85.8952 113.261 85.9552C113.076 86.0152 112.878 86.0232 112.689 85.9784C112.5 85.9336 112.326 85.8377 112.188 85.7012L106.735 80.2561C106.617 80.1376 106.528 79.9926 106.476 79.833C106.424 79.6734 106.412 79.5039 106.438 79.3383L106.939 76.2343L102.075 71.3703L98.9017 68.1959L98.2259 67.5213L96.7257 66.0199L92.8729 62.1658L91.3677 60.6618L87.4905 56.7809L85.9635 55.2525L82.7238 52.0129C82.6254 51.9144 82.5473 51.7974 82.4941 51.6688C82.4409 51.5401 82.4135 51.4022 82.4136 51.263C82.4136 51.1237 82.4411 50.9859 82.4945 50.8572C82.5478 50.7286 82.6259 50.6118 82.7244 50.5133C82.823 50.4149 82.9399 50.3369 83.0685 50.2836C83.1972 50.2304 83.3351 50.203 83.4743 50.2031C83.6136 50.2032 83.7515 50.2306 83.8801 50.284C84.0087 50.3373 84.1256 50.4155 84.224 50.514L94.368 60.658L98.2208 64.5108L98.9888 65.2788L99.7197 66.0097L103.57 69.8599L105.07 71.3601L108.436 74.7265L111.542 74.226C111.707 74.1986 111.877 74.2113 112.037 74.2629C112.196 74.3146 112.341 74.4038 112.459 74.5229L117.907 79.9719C118.046 80.1097 118.144 80.2835 118.19 80.4738C118.236 80.6641 118.229 80.8635 118.168 81.0497Z" fill="#A97C52" fill-opacity="0.15"/>
</svg>
