<svg width="21" height="20" viewBox="0 0 21 20" fill="none" xmlns="http://www.w3.org/2000/svg">
<path d="M10.0542 2.40886C8.49875 2.40886 7.007 3.00102 5.90713 4.05507C4.80725 5.10912 4.18935 6.53871 4.18935 8.02936C4.18935 10.3273 5.68237 12.5442 7.32119 14.2617C8.15959 15.1361 9.07388 15.9409 10.0542 16.6673C11.0345 15.9415 11.9488 15.1372 12.7872 14.2633C14.4261 12.5442 15.9191 10.3281 15.9191 8.02936C15.9191 6.53871 15.3012 5.10912 14.2013 4.05507C13.1014 3.00102 11.6097 2.40886 10.0542 2.40886ZM10.0542 18.6392L9.57916 18.3261L9.57665 18.3245L9.57162 18.3205L9.55486 18.3092L9.49202 18.2667C9.1451 18.025 8.8059 17.7733 8.47489 17.5119C7.62647 16.844 6.82775 16.1202 6.08454 15.3456C4.372 13.5503 2.51367 10.9496 2.51367 8.02936C2.51367 6.11281 3.30812 4.27476 4.72224 2.91956C6.13637 1.56435 8.05434 0.803009 10.0542 0.803009C12.0541 0.803009 13.9721 1.56435 15.3862 2.91956C16.8003 4.27476 17.5948 6.11281 17.5948 8.02936C17.5948 10.9496 15.7364 13.5511 14.0239 15.3456C13.0536 16.3571 11.989 17.2816 10.8435 18.1077C10.748 18.1761 10.6516 18.2432 10.5544 18.3092L10.5368 18.3205L10.5318 18.3245L10.5301 18.3253L10.0542 18.6384V18.6392ZM10.0542 6.4235C9.6098 6.4235 9.18358 6.59269 8.86933 6.89385C8.55508 7.19501 8.37854 7.60346 8.37854 8.02936C8.37854 8.45526 8.55508 8.86372 8.86933 9.16487C9.18358 9.46603 9.6098 9.63522 10.0542 9.63522C10.4986 9.63522 10.9248 9.46603 11.2391 9.16487C11.5533 8.86372 11.7299 8.45526 11.7299 8.02936C11.7299 7.60346 11.5533 7.19501 11.2391 6.89385C10.9248 6.59269 10.4986 6.4235 10.0542 6.4235ZM6.70286 8.02936C6.70286 7.17756 7.05595 6.36065 7.68445 5.75834C8.31295 5.15602 9.16538 4.81765 10.0542 4.81765C10.943 4.81765 11.7955 5.15602 12.424 5.75834C13.0525 6.36065 13.4056 7.17756 13.4056 8.02936C13.4056 8.88116 13.0525 9.69807 12.424 10.3004C11.7955 10.9027 10.943 11.2411 10.0542 11.2411C9.16538 11.2411 8.31295 10.9027 7.68445 10.3004C7.05595 9.69807 6.70286 8.88116 6.70286 8.02936Z" fill="#A97C52"/>
</svg>
