<svg width="62" height="55" viewBox="0 0 62 55" fill="none" xmlns="http://www.w3.org/2000/svg">
<g clip-path="url(#clip0_47_6552)">
<path d="M4.67379 51.4041C4.67379 51.9762 4.57168 52.4556 4.36639 52.8423C4.1611 53.2289 3.86114 53.5123 3.46438 53.6925L4.64614 55H3.31334L2.41346 53.9085H2.33581C1.58379 53.9085 1.00621 53.6925 0.603074 53.2595C0.199938 52.8275 -0.00109863 52.2059 -0.00109863 51.3968C-0.00109863 50.5876 0.201001 49.9692 0.605201 49.5425C1.0094 49.1158 1.58805 48.9019 2.34326 48.9019C3.09848 48.9019 3.67499 49.1168 4.07387 49.5467C4.47382 49.9765 4.67379 50.596 4.67379 51.402V51.4041ZM1.0913 51.4041C1.0913 51.9478 1.19555 52.3566 1.40403 52.6315C1.61251 52.9065 1.92311 53.0435 2.33794 53.0435C3.16868 53.0435 3.58352 52.4967 3.58352 51.4041C3.58352 50.3116 3.17081 49.7616 2.34432 49.7616C1.93055 49.7616 1.61783 49.8996 1.40722 50.1757C1.19661 50.4517 1.0913 50.8615 1.0913 51.4041Z" fill="white"/>
<path d="M10.406 53.8421H9.22103L8.55623 51.2872C8.53176 51.1966 8.48921 51.008 8.43071 50.7235C8.37221 50.4391 8.33711 50.2473 8.3286 50.1493C8.31477 50.2694 8.2818 50.4612 8.22755 50.7267C8.1733 50.9922 8.13288 51.1808 8.1031 51.2935L7.44149 53.8411H6.25973L5.00671 48.9777H6.03104L6.65861 51.6317C6.76817 52.1216 6.84795 52.5462 6.89688 52.9055C6.91071 52.779 6.94155 52.5831 6.98942 52.3186C7.03729 52.0542 7.08302 51.8477 7.12557 51.7012L7.84037 48.9767H8.82427L9.53907 51.7012C9.56992 51.8235 9.60927 52.0099 9.65714 52.2596C9.70394 52.5104 9.74011 52.7253 9.76457 52.9044C9.78691 52.7316 9.82307 52.5157 9.872 52.2575C9.92093 51.9994 9.96561 51.7908 10.006 51.6306L10.6304 48.9767H11.6547L10.406 53.84V53.8421Z" fill="white"/>
<path d="M15.0032 53.8421L14.6469 52.6842H12.8567L12.5004 53.8421H11.3793L13.112 48.9588H14.3852L16.1244 53.8421H15.0032ZM14.3991 51.8203C14.0704 50.7709 13.8842 50.1788 13.8428 50.0408C13.8013 49.9028 13.7715 49.7943 13.7534 49.7152C13.68 49.9987 13.4683 50.7014 13.1184 51.8203H14.398H14.3991Z" fill="white"/>
<path d="M20.6152 49.7679C20.2238 49.7679 19.9196 49.9133 19.7047 50.2052C19.4898 50.497 19.3824 50.9026 19.3824 51.4241C19.3824 52.5083 19.793 53.0509 20.6152 53.0509C20.9599 53.0509 21.3779 52.9655 21.8682 52.7949V53.6598C21.4651 53.8263 21.0152 53.9095 20.5184 53.9095C19.8047 53.9095 19.258 53.6946 18.8793 53.2658C18.5006 52.837 18.3113 52.2207 18.3113 51.4178C18.3113 50.9121 18.4038 50.4696 18.59 50.0893C18.7761 49.7089 19.0431 49.4171 19.3909 49.2148C19.7387 49.0115 20.1472 48.9103 20.6152 48.9103C21.0832 48.9103 21.5715 49.0241 22.0523 49.2527L21.7161 50.0914C21.5321 50.005 21.3481 49.9291 21.162 49.8649C20.9758 49.8006 20.7939 49.7679 20.6142 49.7679H20.6152Z" fill="white"/>
<path d="M26.2432 51.9762C26.2432 52.582 26.0815 53.0551 25.7592 53.3965C25.4369 53.7378 24.988 53.9085 24.4126 53.9085C24.052 53.9085 23.7339 53.8305 23.4584 53.6746C23.1829 53.5187 22.9713 53.2932 22.8234 53.0014C22.6756 52.7085 22.6022 52.3671 22.6022 51.9773C22.6022 51.3694 22.7617 50.8974 23.0819 50.5602C23.4021 50.2231 23.852 50.0545 24.4317 50.0545C24.7923 50.0545 25.1103 50.1325 25.3858 50.2873C25.6613 50.4422 25.873 50.6656 26.0209 50.9553C26.1687 51.2461 26.2421 51.5864 26.2421 51.9762H26.2432ZM23.6478 51.9762C23.6478 52.3439 23.7084 52.6231 23.8307 52.8107C23.953 52.9993 24.1509 53.093 24.4264 53.093C24.7019 53.093 24.8955 52.9993 25.0157 52.8117C25.1359 52.6242 25.1954 52.346 25.1954 51.9752C25.1954 51.6043 25.1348 51.3314 25.0146 51.1471C24.8933 50.9627 24.6955 50.871 24.42 50.871C24.1445 50.871 23.9499 50.9627 23.8286 51.145C23.7073 51.3283 23.6478 51.6043 23.6478 51.9752V51.9762Z" fill="white"/>
<path d="M30.5543 53.8421H29.53V51.6707C29.53 51.402 29.4821 51.2008 29.3853 51.067C29.2885 50.9332 29.1354 50.8658 28.9247 50.8658C28.6386 50.8658 28.4312 50.9606 28.3036 51.1502C28.1759 51.3399 28.1121 51.6538 28.1121 52.0932V53.8432H27.0878V50.1251H27.8706L28.0079 50.6003H28.0653C28.1791 50.4201 28.3365 50.2852 28.5376 50.1925C28.7375 50.1009 28.9662 50.0545 29.2205 50.0545C29.6566 50.0545 29.9884 50.1714 30.2139 50.4053C30.4405 50.6392 30.5532 50.9774 30.5532 51.4178V53.8432L30.5543 53.8421Z" fill="white"/>
<path d="M34.2282 52.738C34.2282 53.1194 34.0942 53.4101 33.8272 53.6093C33.5592 53.8084 33.1592 53.9085 32.6263 53.9085C32.3529 53.9085 32.12 53.8906 31.9275 53.8537C31.7349 53.8168 31.5552 53.7631 31.3871 53.6925V52.8539C31.5775 52.9424 31.7913 53.0172 32.0306 53.0772C32.2689 53.1373 32.4795 53.1668 32.6603 53.1668C33.0316 53.1668 33.2177 53.0604 33.2177 52.8475C33.2177 52.7675 33.1933 52.7032 33.1443 52.6526C33.0954 52.6031 33.0103 52.5462 32.889 52.483C32.7678 52.4198 32.6072 52.346 32.4051 52.2617C32.1157 52.1416 31.9041 52.031 31.769 51.9288C31.6339 51.8266 31.535 51.7097 31.4733 51.578C31.4116 51.4463 31.3807 51.284 31.3807 51.0912C31.3807 50.7604 31.5105 50.5054 31.769 50.3242C32.0275 50.143 32.3944 50.0534 32.8688 50.0534C33.3432 50.0534 33.7613 50.1514 34.1889 50.3463L33.8804 51.0775C33.6921 50.9974 33.5166 50.9321 33.3528 50.8816C33.189 50.831 33.0231 50.8046 32.8529 50.8046C32.5508 50.8046 32.3997 50.8858 32.3997 51.048C32.3997 51.1386 32.4487 51.2176 32.5455 51.284C32.6433 51.3504 32.8561 51.4494 33.1847 51.5801C33.4783 51.6981 33.6932 51.8077 33.8293 51.9088C33.9655 52.011 34.0665 52.1279 34.1314 52.2617C34.1963 52.3945 34.2293 52.5536 34.2293 52.7369L34.2282 52.738Z" fill="white"/>
<path d="M36.6099 53.1004C36.7886 53.1004 37.0034 53.0614 37.2545 52.9845V53.7399C36.9992 53.8527 36.6854 53.9095 36.3142 53.9095C35.9046 53.9095 35.6058 53.8073 35.4196 53.6019C35.2324 53.3965 35.1388 53.0888 35.1388 52.679V50.8858H34.6484V50.457L35.2122 50.1177L35.5079 49.3328H36.1631V50.124H37.214V50.8858H36.1631V52.679C36.1631 52.8233 36.2035 52.9297 36.2854 52.9982C36.3674 53.0667 36.4748 53.1014 36.6099 53.1014V53.1004Z" fill="white"/>
<path d="M40.1083 50.0534C40.2476 50.0534 40.3625 50.0629 40.454 50.0829L40.3763 51.0343C40.2934 51.0122 40.1923 51.0006 40.0742 51.0006C39.7477 51.0006 39.4924 51.0838 39.3105 51.2503C39.1276 51.4168 39.0371 51.6496 39.0371 51.9488V53.8411H38.0128V50.123H38.7882L38.9393 50.7478H38.9893C39.1052 50.5391 39.2626 50.3716 39.4616 50.2441C39.6594 50.1167 39.8753 50.0534 40.1083 50.0534Z" fill="white"/>
<path d="M43.795 53.8421L43.6578 53.3669H43.6046C43.4951 53.5397 43.3398 53.6735 43.1377 53.7673C42.9366 53.8611 42.7069 53.9085 42.4495 53.9085C42.008 53.9085 41.6762 53.7915 41.4517 53.5576C41.2284 53.3238 41.1156 52.9877 41.1156 52.5483V50.124H42.1399V52.2955C42.1399 52.5641 42.1878 52.7654 42.2846 52.8992C42.3814 53.033 42.5346 53.1004 42.7452 53.1004C43.0313 53.1004 43.2387 53.0056 43.3664 52.8159C43.494 52.6263 43.5578 52.3123 43.5578 51.873V50.123H44.5821V53.8411H43.7961L43.795 53.8421Z" fill="white"/>
<path d="M47.1807 53.9085C46.0117 53.9085 45.4277 53.2732 45.4277 52.0026C45.4277 51.3704 45.5862 50.8879 45.9043 50.5539C46.2223 50.2199 46.6776 50.0534 47.2711 50.0534C47.7051 50.0534 48.0955 50.1377 48.4401 50.3063L48.138 51.0912C47.9763 51.0269 47.8263 50.9743 47.6881 50.9332C47.5498 50.8921 47.4104 50.8721 47.2722 50.8721C46.7393 50.8721 46.4733 51.2471 46.4733 51.9962C46.4733 52.7453 46.7393 53.0867 47.2722 53.0867C47.4689 53.0867 47.6519 53.0604 47.82 53.0087C47.988 52.9571 48.1561 52.8749 48.3241 52.7643V53.6324C48.1582 53.7368 47.9912 53.8084 47.8221 53.8484C47.653 53.8885 47.4402 53.9085 47.1828 53.9085H47.1807Z" fill="white"/>
<path d="M50.7738 53.1004C50.9525 53.1004 51.1674 53.0614 51.4184 52.9845V53.7399C51.1631 53.8527 50.8493 53.9095 50.4781 53.9095C50.0686 53.9095 49.7697 53.8073 49.5835 53.6019C49.3963 53.3965 49.3027 53.0888 49.3027 52.679V50.8858H48.8124V50.457L49.3761 50.1177L49.6718 49.3328H50.3271V50.124H51.378V50.8858H50.3271V52.679C50.3271 52.8233 50.3675 52.9297 50.4494 52.9982C50.5313 53.0667 50.6387 53.1014 50.7738 53.1014V53.1004Z" fill="white"/>
<path d="M52.1332 49.1621C52.1332 48.8313 52.3193 48.6669 52.6905 48.6669C53.0618 48.6669 53.2479 48.8323 53.2479 49.1621C53.2479 49.3191 53.2011 49.4424 53.1086 49.5298C53.016 49.6173 52.8767 49.6615 52.6905 49.6615C52.3193 49.6615 52.1332 49.495 52.1332 49.1621ZM53.2011 53.8421H52.1768V50.124H53.2011V53.8421Z" fill="white"/>
<path d="M57.6878 51.9762C57.6878 52.582 57.5261 53.0551 57.2038 53.3965C56.8815 53.7378 56.4326 53.9085 55.8572 53.9085C55.4966 53.9085 55.1785 53.8305 54.9041 53.6746C54.6286 53.5187 54.417 53.2932 54.2691 53.0014C54.1212 52.7085 54.0479 52.3671 54.0479 51.9773C54.0479 51.3694 54.2074 50.8974 54.5276 50.5602C54.8477 50.2231 55.2977 50.0545 55.8774 50.0545C56.238 50.0545 56.556 50.1325 56.8315 50.2873C57.107 50.4422 57.3187 50.6656 57.4665 50.9553C57.6144 51.2461 57.6878 51.5864 57.6878 51.9762ZM55.0924 51.9762C55.0924 52.3439 55.153 52.6231 55.2753 52.8107C55.3977 52.9993 55.5966 53.093 55.871 53.093C56.1454 53.093 56.3401 52.9993 56.4603 52.8117C56.5805 52.6242 56.64 52.346 56.64 51.9752C56.64 51.6043 56.5794 51.3314 56.4582 51.1471C56.3369 50.9627 56.1391 50.871 55.8636 50.871C55.5881 50.871 55.3934 50.9627 55.2722 51.145C55.1509 51.3283 55.0913 51.6043 55.0913 51.9752L55.0924 51.9762Z" fill="white"/>
<path d="M61.9999 53.8421H60.9756V51.6707C60.9756 51.402 60.9277 51.2008 60.8309 51.067C60.7341 50.9332 60.581 50.8658 60.3714 50.8658C60.0853 50.8658 59.8779 50.9606 59.7502 51.1502C59.6226 51.3399 59.5588 51.6538 59.5588 52.0932V53.8432H58.5344V50.1251H59.3173L59.4545 50.6003H59.5119C59.6258 50.4201 59.7832 50.2852 59.9842 50.1925C60.1842 50.1009 60.4129 50.0545 60.6671 50.0545C61.1032 50.0545 61.4351 50.1714 61.6606 50.4053C61.8872 50.6392 61.9999 50.9774 61.9999 51.4178V53.8432V53.8421Z" fill="white"/>
<path d="M1.38066 44.9172C1.38066 45.1806 1.31578 45.3871 1.18707 45.5357C1.05837 45.6842 0.877539 45.758 0.645656 45.758C0.435047 45.758 0.219119 45.6969 0 45.5757V46.2658C0.253157 46.3996 0.512696 46.4671 0.77968 46.4671C1.1892 46.4671 1.51894 46.3269 1.76784 46.0467C2.03802 45.7454 2.17311 45.3524 2.17311 44.8667V42.4698L1.38173 42.8902V44.9172H1.38066Z" fill="white"/>
<path d="M13.6726 44.2988C13.5268 44.1671 13.4545 43.9859 13.4545 43.7562C13.4545 43.555 13.513 43.3959 13.629 43.2758C13.7449 43.1567 13.9002 43.0967 14.0949 43.0967C14.4576 43.0967 14.7937 43.2768 15.1022 43.6361V42.9397C14.8235 42.5551 14.4586 42.3623 14.0066 42.3623C13.6726 42.3623 13.3801 42.4666 13.1258 42.6763C12.8131 42.9355 12.6568 43.2874 12.6568 43.7299C12.6568 44.0101 12.7163 44.2651 12.8344 44.4958H8.77431C8.61369 44.4958 8.49881 44.461 8.42861 44.3926C8.35841 44.3241 8.32437 44.2071 8.32437 44.0449V43.8626C8.32437 43.4359 8.22757 43.0914 8.03292 42.8269C7.80104 42.5172 7.47129 42.3623 7.04476 42.3623C6.66928 42.3623 6.36932 42.4814 6.14488 42.7195C5.88747 42.9913 5.75876 43.3716 5.75876 43.8616V44.0438C5.75876 44.2071 5.72473 44.323 5.65771 44.3915C5.58964 44.461 5.47582 44.4948 5.31521 44.4948H4.55467C4.39406 44.4948 4.28024 44.46 4.21217 44.3915C4.14409 44.323 4.11112 44.2061 4.11112 44.0438V41.2076L3.31335 41.6216V44.0807C3.31335 44.4115 3.40377 44.6812 3.58566 44.8898C3.79627 45.1322 4.0941 45.2533 4.47915 45.2533H5.39073C5.69069 45.2533 5.94172 45.1764 6.14488 45.0215C6.364 45.2597 6.66396 45.3787 7.04476 45.3787C7.42556 45.3787 7.71594 45.2597 7.94463 45.0215C8.13822 45.1764 8.38819 45.2533 8.6924 45.2533H15.4064V44.4937H14.2725C14.0193 44.4937 13.8194 44.4273 13.6736 44.2956L13.6726 44.2988ZM7.04369 44.6222C6.71821 44.6222 6.55546 44.3631 6.55546 43.8447C6.55546 43.3263 6.71821 43.0977 7.04369 43.0977C7.36918 43.0977 7.52554 43.3464 7.52554 43.8447C7.52554 44.343 7.36493 44.6222 7.04369 44.6222Z" fill="white"/>
<path d="M18.7304 43.9448C18.7304 44.146 18.6889 44.2883 18.607 44.3715C18.5251 44.4558 18.3858 44.4969 18.1922 44.4969H17.8816V42.0252L17.0838 42.4455V44.4969H16.2478L15.8489 45.2565H18.2368C18.6166 45.2565 18.9229 45.1459 19.1548 44.9236C19.4037 44.6812 19.5282 44.3567 19.5282 43.9511V41.2097L18.7304 41.6301V43.9448Z" fill="white"/>
<path d="M20.6621 45.2554H21.4609V41.2086L20.6621 41.629V45.2554Z" fill="white"/>
<path d="M24.469 44.9172C24.469 45.1806 24.4042 45.3871 24.2755 45.5357C24.1467 45.6842 23.9659 45.758 23.734 45.758C23.5234 45.758 23.3075 45.6969 23.0884 45.5757V46.2658C23.3415 46.3996 23.6011 46.4671 23.8681 46.4671C24.2776 46.4671 24.6073 46.3269 24.8562 46.0467C25.1264 45.7454 25.2615 45.3524 25.2615 44.8667V42.4698L24.4701 42.8902V44.9172H24.469Z" fill="white"/>
<path d="M32.9444 41.9177C33.2188 41.9177 33.356 41.7776 33.356 41.4973C33.356 41.3719 33.3188 41.2729 33.2454 41.1992C33.172 41.1254 33.071 41.0896 32.9444 41.0896C32.8178 41.0896 32.7221 41.1275 32.6434 41.2023C32.5657 41.2782 32.5264 41.3762 32.5264 41.4973C32.5264 41.6185 32.5647 41.7238 32.6402 41.8018C32.7157 41.8798 32.8178 41.9177 32.9444 41.9177Z" fill="white"/>
<path d="M31.9754 41.9177C32.2498 41.9177 32.387 41.7776 32.387 41.4973C32.387 41.3719 32.3498 41.2729 32.2764 41.1992C32.203 41.1265 32.102 41.0896 31.9754 41.0896C31.8488 41.0896 31.7478 41.1275 31.6712 41.2023C31.5957 41.2782 31.5574 41.3762 31.5574 41.4973C31.5574 41.6269 31.5957 41.7291 31.6712 41.805C31.7467 41.8798 31.8488 41.9177 31.9754 41.9177Z" fill="white"/>
<path d="M38.1 45.8265C37.9735 45.8265 37.8724 45.8644 37.7958 45.9392C37.7203 46.014 37.682 46.1131 37.682 46.2342C37.682 46.3638 37.7203 46.466 37.7958 46.5419C37.8724 46.6167 37.9735 46.6546 38.1 46.6546C38.3745 46.6546 38.5117 46.5145 38.5117 46.2342C38.5117 46.1088 38.4744 46.0087 38.4011 45.9361C38.3277 45.8623 38.2266 45.8265 38.1 45.8265Z" fill="white"/>
<path d="M37.7714 44.0449C37.7714 44.2082 37.7373 44.3241 37.6703 44.3926C37.6022 44.4621 37.4884 44.4958 37.3278 44.4958H33.6283C33.4677 44.4958 33.3539 44.461 33.2858 44.3926C33.2188 44.3241 33.1848 44.2071 33.1848 44.0449V42.4698L32.387 42.8838V44.0449C32.387 44.2082 32.353 44.3241 32.2859 44.3926C32.2179 44.4621 32.1041 44.4958 31.9434 44.4958H31.2531C31.0925 44.4958 30.9776 44.461 30.9085 44.3926C30.8393 44.3241 30.8042 44.2071 30.8042 44.0449V44.0196C30.8042 43.4802 30.5926 43.0682 30.1713 42.7837C29.9395 42.6204 29.6565 42.5225 29.3225 42.4887L30.4756 41.2086H29.6714L28.3854 42.6268V43.3864C28.6216 43.3032 28.8481 43.261 29.063 43.261C29.3459 43.261 29.5736 43.3316 29.7469 43.4707C29.9203 43.6108 30.0065 43.7962 30.0065 44.0259V44.0638C30.0065 44.3525 29.8586 44.4969 29.5629 44.4969H27.644C27.4834 44.4969 27.3696 44.4621 27.3015 44.3936C27.2334 44.3251 27.2005 44.2082 27.2005 44.0459V41.2097L26.4027 41.6238V44.0828C26.4027 44.4136 26.4931 44.6833 26.675 44.892C26.8856 45.1343 27.1835 45.2554 27.5685 45.2554H29.6459C29.9543 45.2554 30.2096 45.1743 30.4128 45.011C30.6106 45.1743 30.8649 45.2554 31.1733 45.2554H32.0222C32.3306 45.2554 32.5859 45.1743 32.7891 45.011C32.9922 45.1743 33.2475 45.2554 33.556 45.2554H37.4076C37.7416 45.2554 38.0118 45.1617 38.2181 44.9731C38.4542 44.7603 38.5723 44.4631 38.5723 44.0818V42.4698L37.7746 42.8838V44.0449H37.7714Z" fill="white"/>
<path d="M39.7095 45.2554H40.5072V41.2086L39.7095 41.629V45.2554Z" fill="white"/>
<path d="M42.725 42.3634C42.358 42.3634 42.0623 42.4803 41.8379 42.7142C41.5847 42.9776 41.4581 43.34 41.4581 43.7994C41.4581 44.1429 41.5528 44.4347 41.7432 44.6781C41.9751 44.9668 42.2857 45.1111 42.6739 45.1111C42.8133 45.1111 42.9483 45.0985 43.0792 45.0732C43.0281 45.5125 42.7984 45.7317 42.3889 45.7317C42.1612 45.7317 41.9325 45.6663 41.7049 45.5367V46.2205C41.9581 46.3628 42.2176 46.4333 42.4835 46.4333C42.9058 46.4333 43.2398 46.2995 43.4844 46.0319C43.7461 45.7475 43.8769 45.3587 43.8769 44.8646V43.5223C43.8769 43.1915 43.7865 42.9239 43.6046 42.7195C43.393 42.4814 43.1005 42.3623 42.7239 42.3623L42.725 42.3634ZM43.0856 44.3146C43.01 44.3978 42.8867 44.44 42.7186 44.44C42.3974 44.44 42.2378 44.2187 42.2378 43.7752C42.2378 43.5665 42.2814 43.4011 42.3676 43.28C42.4537 43.1588 42.5739 43.0977 42.725 43.0977C42.9654 43.0977 43.0856 43.2357 43.0856 43.5118V44.3146Z" fill="white"/>
<path d="M47.8934 41.7112C48.1678 41.7112 48.305 41.5711 48.305 41.2908C48.305 41.1654 48.2678 41.0664 48.1944 40.9927C48.1199 40.92 48.02 40.8831 47.8934 40.8831C47.6147 40.8831 47.4753 41.019 47.4753 41.2908C47.4753 41.4204 47.5136 41.5226 47.5892 41.5985C47.6647 41.6743 47.7668 41.7112 47.8934 41.7112Z" fill="white"/>
<path d="M46.918 41.7112C47.1925 41.7112 47.3297 41.5711 47.3297 41.2908C47.3297 41.1654 47.2924 41.0664 47.2191 40.9927C47.1446 40.92 47.0446 40.8831 46.918 40.8831C46.6393 40.8831 46.5 41.019 46.5 41.2908C46.5 41.4204 46.5383 41.5226 46.6138 41.5985C46.6893 41.6743 46.7914 41.7112 46.918 41.7112Z" fill="white"/>
<path d="M53.9809 45.8265C53.7022 45.8265 53.5629 45.9624 53.5629 46.2342C53.5629 46.3638 53.6012 46.466 53.6767 46.5419C53.7522 46.6167 53.8543 46.6546 53.9809 46.6546C54.2553 46.6546 54.3925 46.5145 54.3925 46.2342C54.3925 46.1088 54.3553 46.0087 54.2819 45.9361C54.2085 45.8623 54.1075 45.8265 53.9809 45.8265Z" fill="white"/>
<path d="M54.9562 45.8265C54.6775 45.8265 54.5382 45.9624 54.5382 46.2342C54.5382 46.3638 54.5765 46.466 54.652 46.5419C54.7275 46.6167 54.8297 46.6546 54.9562 46.6546C55.2307 46.6546 55.3679 46.5145 55.3679 46.2342C55.3679 46.1088 55.3307 46.0087 55.2573 45.9361C55.1839 45.8623 55.0828 45.8265 54.9562 45.8265Z" fill="white"/>
<path d="M61.7213 42.7205C61.515 42.4824 61.2235 42.3634 60.847 42.3634C60.4704 42.3634 60.1822 42.4803 59.9535 42.7142C59.7003 42.9818 59.5738 43.3464 59.5738 43.8057C59.5738 44.0818 59.6376 44.3114 59.7642 44.4958H55.6211C55.4605 44.4958 55.3467 44.461 55.2786 44.3926C55.2116 44.3241 55.1776 44.2071 55.1776 44.0449V42.4698L54.3798 42.8838V44.0449C54.3798 44.2082 54.3458 44.3241 54.2787 44.3926C54.2107 44.4621 54.0969 44.4958 53.9362 44.4958H53.1821C53.0215 44.4958 52.9066 44.461 52.8375 44.3926C52.7683 44.3241 52.7332 44.2071 52.7332 44.0449V43.8626C52.7332 43.4359 52.6364 43.0914 52.4418 42.8269C52.2099 42.5172 51.8801 42.3623 51.4536 42.3623C51.0781 42.3623 50.7782 42.4814 50.5537 42.7195C50.2963 42.9913 50.1676 43.3716 50.1676 43.8616V44.0438C50.1676 44.2071 50.1336 44.323 50.0666 44.3915C49.9985 44.461 49.8847 44.4948 49.7241 44.4948H48.9635C48.8029 44.4948 48.688 44.46 48.6189 44.3915C48.5487 44.323 48.5146 44.2061 48.5146 44.0438V41.9546L47.7233 42.3686V42.5319C47.5924 42.4729 47.4488 42.4445 47.2925 42.4445C46.9925 42.4445 46.7287 42.553 46.5011 42.7711C46.2309 43.0303 46.0958 43.3674 46.0958 43.7815C46.0958 44.1165 46.1905 44.4031 46.3809 44.6412C46.6128 44.9299 46.9234 45.0742 47.3116 45.0742C47.5733 45.0742 47.7945 45.0057 47.9764 44.8667C48.1923 45.1258 48.4955 45.2554 48.8891 45.2554H49.8017C50.1017 45.2554 50.3527 45.1785 50.5559 45.0237C50.775 45.2618 51.0749 45.3808 51.4557 45.3808C51.8365 45.3808 52.1269 45.2618 52.3556 45.0237C52.5492 45.1785 52.7992 45.2554 53.1034 45.2554H54.016C54.3245 45.2554 54.5798 45.1743 54.7829 45.011C54.9861 45.1743 55.2414 45.2554 55.5498 45.2554H60.8395C61.1938 45.2554 61.4746 45.1511 61.682 44.9415C61.8926 44.7318 62.0011 44.4484 62.0053 44.0881V43.5234C62.0053 43.1925 61.9128 42.9249 61.7267 42.7205H61.7213ZM47.3552 44.402C47.2074 44.402 47.0914 44.3473 47.0063 44.2387C46.9212 44.1302 46.8798 43.9838 46.8798 43.7994C46.8798 43.615 46.9234 43.4665 47.0095 43.3537C47.0957 43.241 47.2095 43.1841 47.3488 43.1841C47.4882 43.1841 47.6126 43.2305 47.7222 43.3221V44.0818C47.7222 44.1534 47.7243 44.205 47.7286 44.2387C47.6403 44.3473 47.5158 44.402 47.3552 44.402ZM51.4536 44.6222C51.1281 44.6222 50.9664 44.3631 50.9664 43.8447C50.9664 43.3263 51.1292 43.0977 51.4536 43.0977C51.778 43.0977 51.9355 43.3464 51.9355 43.8447C51.9355 44.343 51.7748 44.6222 51.4536 44.6222ZM61.2012 44.0944C61.2012 44.362 61.0767 44.4958 60.8278 44.4958C60.5151 44.4958 60.3588 44.2577 60.3588 43.7804C60.3588 43.3032 60.5215 43.0967 60.8459 43.0967C61.0821 43.0967 61.2001 43.2347 61.2001 43.5107V44.0944H61.2012Z" fill="white"/>
<path d="M61.3405 41.9177C61.6149 41.9177 61.7522 41.7776 61.7522 41.4973C61.7522 41.3719 61.7149 41.2729 61.6415 41.1992C61.5671 41.1265 61.4671 41.0896 61.3405 41.0896C61.0618 41.0896 60.9225 41.2255 60.9225 41.4973C60.9225 41.6269 60.9608 41.7291 61.0363 41.805C61.1118 41.8798 61.2139 41.9177 61.3405 41.9177Z" fill="white"/>
<path d="M60.3652 41.9177C60.6396 41.9177 60.7768 41.7776 60.7768 41.4973C60.7768 41.3719 60.7396 41.2729 60.6662 41.1992C60.5928 41.1254 60.4917 41.0896 60.3652 41.0896C60.0865 41.0896 59.9471 41.2255 59.9471 41.4973C59.9471 41.6269 59.9854 41.7291 60.061 41.805C60.1365 41.8798 60.2386 41.9177 60.3652 41.9177Z" fill="white"/>
<path d="M55.3552 26.2742C54.968 25.9022 51.2292 22.3865 50.8399 22.0177C47.2414 18.6062 43.4132 14.9787 39.8105 11.5715V11.2575C39.818 9.25043 39.8105 6.92202 39.8201 4.91495H39.4914C39.4914 4.91495 37.7225 4.91284 36.8386 4.91495C36.7567 4.91495 36.5588 4.91495 36.5588 4.91495V8.46445C34.7165 6.71446 32.8753 4.96552 30.9639 3.1502V7.98929C33.8252 10.6496 37.28 13.9125 40.1296 16.5854C42.4697 18.7811 48.4232 24.3735 50.759 26.5744L51.076 26.5765C51.076 26.5765 53.2044 26.5765 54.2724 26.5765H55.669L55.3563 26.2763L55.3552 26.2742Z" fill="white"/>
<path d="M49.0209 18.6831C48.9784 20.3183 48.7391 21.9724 48.2679 23.4737C47.3361 26.4533 45.7299 29.0303 43.4324 31.1659C40.0211 34.3361 35.9547 35.9355 31.2819 36.0377C31.2245 36.0387 31.1766 36.0419 31.0638 36.0377V35.5267C31.0638 34.8187 31.0755 34.1117 31.0585 33.4058L31.0553 33.0107C33.3635 33.0107 35.7855 32.4892 37.8023 31.4767L39.0734 30.775L40.0307 30.1208C43.377 27.745 45.6001 24.01 46.0618 19.5744C46.0777 19.4132 46.183 18.2048 46.0788 17.0848L46.1426 17.068L46.0948 17.0216C46.0841 16.8583 46.0724 16.6529 46.0522 16.4917C45.5204 12.1351 43.6068 8.80055 40.153 6.09496V4.55568H37.6427C35.5802 3.53687 33.2859 3.08804 31.0053 3.02904V3.03431C28.1802 3.09963 25.1008 3.88455 22.7501 5.43647C18.7251 8.08938 16.5201 11.8464 15.8925 16.5022C15.8702 16.6676 15.8574 16.8573 15.8468 17.0237L12.9748 19.7746C12.7568 17.4188 12.944 14.826 13.6492 12.5766C14.581 9.596 16.1872 7.01894 18.4847 4.88334C21.8959 1.71312 25.9624 0.113786 30.6352 0.0105356C30.6862 0.00948198 30.8426 0.00632124 30.9564 0.00948198V-2.37138e-07C31.0692 -0.00316097 31.2319 0.00105334 31.2904 0.0031605C35.9621 0.105358 40.0286 1.70469 43.4409 4.87491C45.7384 7.01052 47.3424 9.58757 48.2764 12.5671C48.8731 14.4762 49.0986 16.635 49.0199 18.6831H49.0209Z" fill="white"/>
<path d="M46.3639 26.5386H45.9331C43.4728 26.5397 41.0125 26.5354 38.5522 26.5386C36.7407 26.5418 33.1253 26.5386 33.1253 26.5386L32.7338 26.5428L31.9659 26.5386C31.9659 26.5386 28.1472 22.9185 26.573 21.4435C26.489 21.3645 26.3975 21.2897 26.2858 21.1927C25.7933 21.6511 25.3157 22.0967 24.8403 22.5413C23.4745 23.8141 21.9204 25.2701 20.5483 26.5386H15.5628L15.5681 26.5333H11.2325C11.2325 26.5333 11.2283 26.5376 11.2272 26.5386H10.8879C9.52746 26.527 8.16807 26.5386 6.80975 26.5386H6.33215L6.69168 26.172C8.22338 24.7275 9.74658 23.2757 11.2783 21.8344L11.5272 21.6142V21.611L14.7002 18.5714C20.1281 13.4205 25.5519 8.27481 30.9522 3.14809V3.94987C30.9522 5.20995 30.9532 7.728 30.9532 7.728V7.98613C26.4922 12.191 21.8056 16.5928 17.3381 20.7913C16.4925 21.5847 15.5915 22.4307 14.6842 23.283H18.973C21.4099 20.9567 23.8404 18.6368 26.2709 16.3168C26.7123 16.7329 27.1389 17.1344 27.5643 17.5368C29.512 19.3837 31.6797 21.4435 33.6369 23.2799H33.9496C33.9496 23.2799 36.3014 23.2904 37.4768 23.2894C37.5789 23.2894 37.68 23.2778 37.8608 23.2651C37.731 23.1282 37.6566 23.0439 37.5747 22.967C35.4537 20.9768 33.0806 18.7516 30.9522 16.7677L30.949 16.419C30.9586 15.0641 30.9532 13.7071 30.9532 12.3511V11.9076C36.0504 16.7456 41.1997 21.6321 46.365 26.5354L46.3639 26.5386Z" fill="white"/>
<path d="M18.1231 30.8383C18.0529 30.7856 17.9912 30.7319 17.9391 30.6792C17.6178 30.3547 17.4902 29.9922 17.5551 29.5898C17.6083 29.2684 17.7763 28.9724 18.0572 28.6995C18.4071 28.3592 18.7794 28.179 19.1751 28.159C19.5399 28.1379 19.859 28.2665 20.1345 28.5446C20.4536 28.867 20.5685 29.2431 20.4781 29.673C20.409 30.0091 20.2292 30.3178 19.9399 30.5991C19.525 31.0016 19.0868 31.1617 18.6241 31.0785C18.606 31.3471 18.5901 31.6379 18.5762 31.9498L18.0742 31.443L18.1231 30.8372V30.8383ZM18.3071 30.322C18.6347 30.6528 19.0294 30.5938 19.491 30.1461C19.741 29.9037 19.8856 29.6688 19.9282 29.4423C19.9633 29.2347 19.908 29.0577 19.7612 28.9092C19.6037 28.7501 19.4155 28.6921 19.1953 28.7353C18.9751 28.7785 18.7454 28.9165 18.505 29.1504C18.0444 29.5982 17.9784 29.9891 18.3082 30.3231L18.3071 30.322Z" fill="white"/>
<path d="M23.7117 31.2902C23.4852 32.1089 23.3075 32.76 23.181 33.2425L24.4882 31.7285L25.0371 32.0383L22.931 34.2276L22.4917 33.98L22.9874 31.9013L21.4301 33.3816L20.9866 33.1308L21.8322 30.2293L22.3768 30.5369L21.7195 32.4186C22.3194 31.8255 22.7991 31.345 23.1576 30.9784L23.7107 31.2902H23.7117Z" fill="white"/>
<path d="M26.9623 32.5798L27.4612 32.7052L27.7909 35.8154L27.1878 35.6637C27.1751 35.5014 27.1612 35.2875 27.1485 35.022L26.1178 34.7639C26.0412 34.8882 25.9252 35.0694 25.771 35.3086L25.1764 35.159L26.9613 32.5788L26.9623 32.5798ZM27.0198 33.4122C26.874 33.6281 26.673 33.9316 26.4156 34.3224L27.1059 34.4952C27.0697 34.0464 27.041 33.685 27.0208 33.4122H27.0198Z" fill="white"/>
</g>
<defs>
<clipPath id="clip0_47_6552">
<rect width="62" height="55" fill="white"/>
</clipPath>
</defs>
</svg>
