<svg width="90" height="88" viewBox="0 0 90 88" fill="none" xmlns="http://www.w3.org/2000/svg">
<path d="M11.6734 20.7964C17.6729 12.4931 26.513 7.04738 36.559 5.46153C51.554 3.1052 66.2604 10.0396 74.2942 22.4421H80.0718C71.4609 6.71825 53.8102 -2.31809 35.8044 0.516986C22.1706 2.66386 11.0224 11.0943 4.78625 22.4421H10.549C10.9041 21.8885 11.2813 21.335 11.6734 20.7964Z" fill="#EE283F"/>
<path d="M89.2744 69.0301L81.7288 54.5032L64.7069 58.9465L65.9571 63.8238L76.2842 61.1233C70.7212 72.0896 60.4533 79.6448 48.2768 81.5598C29.2797 84.5445 11.3405 72.7255 5.96247 54.6079H0.813721C5.78492 73.7278 23.014 87.0355 42.3957 87.0355C44.5854 87.0355 46.8047 86.8636 49.0388 86.5119C62.8205 84.3425 74.4348 75.785 80.708 63.375L84.8654 71.3715L89.2744 69.0301Z" fill="#EE283F"/>
<path d="M9.07688 50.1197H16.9479V35.4281H26.0322V28.6958H0V35.4281H9.07688V50.1197Z" fill="#EE283F"/>
<path d="M60.5939 50.1197V28.6958H50.903L44.3709 40.9337L37.8314 28.6958H28.1479V50.1197H36.0116V39.9239L41.7966 50.1197H46.9379L52.7228 39.9239V50.1197H60.5939Z" fill="#EE283F"/>
<path d="M78.141 38.368H70.8765V35.4281H78.141C78.9326 35.4281 79.8942 35.4281 79.8942 36.8943C79.8942 38.368 78.9326 38.368 78.141 38.368ZM63.0055 28.6958V50.1197H70.8765V45.1003H79.6575C84.466 45.1003 87.7653 41.6743 87.7653 36.8943C87.7653 32.1218 84.466 28.6958 79.6575 28.6958H63.0055Z" fill="#EE283F"/>
</svg>
