<svg width="124" height="64" viewBox="0 0 124 64" fill="none" xmlns="http://www.w3.org/2000/svg">
<g clip-path="url(#clip0_16_877)">
<path d="M6.67039 17.0485L4.3874 14.5261C1.59293 19.3143 0 24.8669 0 30.5123H1.57317C1.58077 25.2316 3.41386 20.4274 6.67039 17.0485Z" fill="url(#paint0_linear_16_877)"/>
<path d="M6.2638 41.8168C3.40474 39.1072 1.57317 35.4367 1.57317 30.5381V30.5122H0C0 36.2536 1.02294 41.5907 3.04146 46.2433L6.2638 41.8168Z" fill="url(#paint1_linear_16_877)"/>
<path d="M56.3415 26.439L53.4186 29.4631C57.4663 29.5217 59.9545 32.6524 59.8664 36.6465H61.4395C61.4403 32.7057 59.5966 29.1205 56.3415 26.439Z" fill="url(#paint2_linear_16_877)"/>
<path d="M61.4403 36.6458H59.8671C59.7896 39.9318 58.0371 42.6909 54.1482 44.7405L58.2537 50.4042C60.257 46.6979 61.4403 42.1519 61.4403 36.6458Z" fill="url(#paint3_linear_16_877)"/>
<path d="M8.31274 25.9098C8.20026 26.5166 8.13794 27.144 8.13794 27.7949C8.13794 37.2076 15.1412 43.2177 23.9821 43.2177C40.7892 43.2177 45.777 29.46 53.3039 29.46C53.3411 29.46 53.3799 29.4638 53.4194 29.4638L56.3423 26.4397C52.7119 23.4461 47.3251 21.5701 40.7892 21.5701C27.4834 21.5701 20.3957 32.7034 14.3546 32.7034C11.7274 32.7034 9.71491 29.8117 9.71491 27.0077C9.71491 26.7161 9.73391 26.4328 9.76355 26.1588L8.31274 25.9098Z" fill="url(#paint4_linear_16_877)"/>
<path d="M18.7298 12.1051C28.4432 12.1051 35.185 19.4659 43.8512 19.4659C54.2447 19.4659 59.9963 14.3937 61.441 4.48088L59.8679 4.21973C59.4286 6.84489 57.7201 10.0015 54.6582 10.0015C51.7694 10.0015 48.706 7.4593 44.2471 5.00621C39.7792 2.46481 34.6584 0.0117188 28.2677 0.0117188C17.9904 0.0117188 9.31894 6.0782 4.38739 14.5254L6.67039 17.0478C9.61989 13.9887 13.739 12.1051 18.7298 12.1051Z" fill="url(#paint5_linear_16_877)"/>
<path d="M28.8825 48.7391C21.3602 48.7391 11.8482 47.106 6.26381 41.8169L3.04147 46.2427C7.67738 56.9252 17.5671 63.9883 32.3838 63.9883C42.1777 63.9883 53.0136 60.1024 58.2529 50.4042L54.1475 44.7405C49.32 47.2865 41.1965 48.7391 28.8825 48.7391Z" fill="url(#paint6_linear_16_877)"/>
<path d="M87.2585 47.8805C77.5299 47.8805 72.1538 41.4744 72.1538 31.9994C72.1538 22.4718 77.9753 16.02 87.4379 16.02C91.2127 16.02 94.3651 16.9093 96.81 18.2904L95.7886 24.9195C93.4775 23.4531 90.7689 22.3012 87.6127 22.3012C82.3255 22.3012 79.7544 26.2123 79.7544 31.9522C79.7544 37.7369 82.4189 41.7889 87.7016 41.7889C89.3926 41.7889 90.5903 41.4752 91.8329 40.8075V35.3349H86.5023L85.6116 29.6826H98.4523V44.6348C95.2536 46.7293 91.4787 47.8805 87.2585 47.8805ZM113.026 47.6605C108.891 47.6605 105.431 46.7712 102.319 45.3467L103.428 38.85C106.58 40.5425 110.093 41.699 113.158 41.699C115.334 41.699 116.846 40.7626 116.846 38.9406C116.846 37.204 115.956 36.4008 111.646 34.7547C105.517 32.396 102.851 30.3944 102.851 25.3192C102.851 19.4027 107.47 16.2423 113.332 16.2423C117.34 16.2423 119.914 17.0006 122.577 18.2896L121.421 24.6972C118.674 23.093 115.779 22.2091 113.424 22.2091C111.114 22.2091 110.004 23.1829 110.004 24.6089C110.004 26.1658 110.847 26.9226 114.667 28.3921C121.34 30.8368 124 33.1521 124 38.0476C123.999 44.7254 119.113 47.6605 113.026 47.6605Z" fill="#0068B7"/>
</g>
<defs>
<linearGradient id="paint0_linear_16_877" x1="7.58238" y1="17.9096" x2="-1.76097" y2="27.2354" gradientUnits="userSpaceOnUse">
<stop stop-color="#FABF00"/>
<stop offset="1" stop-color="#C8C400"/>
</linearGradient>
<linearGradient id="paint1_linear_16_877" x1="-1.9904" y1="34.0723" x2="6.01905" y2="42.0666" gradientUnits="userSpaceOnUse">
<stop stop-color="#C8C400"/>
<stop offset="1" stop-color="#7FBF26"/>
</linearGradient>
<linearGradient id="paint2_linear_16_877" x1="54.7311" y1="28.1094" x2="61.5422" y2="34.9074" gradientUnits="userSpaceOnUse">
<stop stop-color="#7DCDF4"/>
<stop offset="1" stop-color="#00B3C4"/>
</linearGradient>
<linearGradient id="paint3_linear_16_877" x1="62.8767" y1="39.7018" x2="55.994" y2="46.5721" gradientUnits="userSpaceOnUse">
<stop stop-color="#00B3C4"/>
<stop offset="1" stop-color="#009E96"/>
</linearGradient>
<linearGradient id="paint4_linear_16_877" x1="11.5214" y1="32.3927" x2="53.3046" y2="32.3927" gradientUnits="userSpaceOnUse">
<stop stop-color="#0068B7"/>
<stop offset="1" stop-color="#7DCDF4"/>
</linearGradient>
<linearGradient id="paint5_linear_16_877" x1="4.38815" y1="9.7388" x2="61.4403" y2="9.7388" gradientUnits="userSpaceOnUse">
<stop stop-color="#FABF00"/>
<stop offset="0.039" stop-color="#F9BB00"/>
<stop offset="0.698" stop-color="#EF7D00"/>
<stop offset="1" stop-color="#EB6100"/>
</linearGradient>
<linearGradient id="paint6_linear_16_877" x1="6.26609" y1="52.903" x2="54.1513" y2="52.903" gradientUnits="userSpaceOnUse">
<stop stop-color="#7FBF26"/>
<stop offset="1" stop-color="#009E96"/>
</linearGradient>
<clipPath id="clip0_16_877">
<rect width="124" height="64" fill="white"/>
</clipPath>
</defs>
</svg>
