<svg width="91" height="76" viewBox="0 0 91 76" fill="none" xmlns="http://www.w3.org/2000/svg">
<path d="M32.1387 48.492C26.104 55.4991 12.1806 56.3223 3.54004 51.4932C4.75218 26.2911 4.71329 26.2911 5.48465 0.0777843C8.07746 0.0777843 11.8824 0.0777843 14.4752 0.0777843C14.3521 6.5987 13.8659 13.0807 13.3409 20.6193C17.3079 16.2958 34.5954 12.1408 36.4882 30.5044L40.4876 31.8786C42.51 24.5928 48.3697 16.6134 58.715 16.7301C78.926 16.957 74.3108 42.1332 48.992 39.4172C48.9531 49.3412 62.6042 48.5504 68.4381 43.9546C78.362 36.1438 76.2748 14.2864 77.3509 0C79.9437 0 82.4976 0.0777843 85.0904 0.0777843C83.9949 25.6818 82.7763 29.934 83.1847 44.1556C82.9448 48.6158 88.0462 47.7725 90.9242 46.8002C90.9242 48.0966 90.9242 51.7719 90.9242 53.0683C83.956 56.3093 76.4168 54.8904 74.9201 45.251C69.0798 55.7065 49.5624 59.0642 41.6154 46.139C40.682 44.6223 40.319 41.2516 40.3774 38.2569C38.4846 37.6865 38.4846 37.6606 36.54 37.0124C36.1641 39.9552 35.464 44.6287 32.1387 48.492ZM62.4487 29.3117C62.4227 27.3023 62.4227 27.3217 62.4227 25.3188C57.5807 20.0554 49.5754 26.667 48.992 32.9352C55.6879 33.5445 60.7569 31.8591 62.4487 29.3117ZM11.9667 46.139C26.9531 49.7884 29.2218 40.0654 28.0486 30.5044C25.8188 20.0554 14.715 24.8845 13.2177 30.8285C12.5047 33.7454 11.8305 43.4425 11.9667 46.139Z" fill="#E30043"/>
<path d="M90.9247 56.3811C90.9247 58.5539 90.9117 62.6641 90.9117 64.8376C66.6845 79.5317 28.1093 81.4886 0 59.9177L2.14685 57.0338C13.3303 65.7178 33.1205 71.4797 52.5776 69.9071C68.0878 68.6548 83.2454 61.6659 90.9247 56.3811Z" fill="#E30043"/>
</svg>
