<svg width="107" height="74" viewBox="0 0 107 74" fill="none" xmlns="http://www.w3.org/2000/svg">
<path d="M46.5217 13.2935H60.4783L76.7609 55.163H65.1304L53.5 27.4826L41.8696 55.163H30.2391L46.5217 13.2935Z" fill="black"/>
<path d="M18.6087 13.2935H27.913V42.3695C27.913 45.7045 24.9184 49.5907 22.0978 51.6739C19.2773 53.7571 14.8745 55.1601 11.6304 55.163C8.3864 55.166 4.65217 52.8369 4.65217 52.8369L0 49.813L4.65217 43.5326L8.1413 45.8587C8.1413 45.8587 10.0605 47.0888 11.6304 47.0217C13.2004 46.9546 15.2603 47.3922 16.2826 45.8587L18.6087 42.3695V13.2935Z" fill="black"/>
<path d="M81.413 13.2935V55.163H107V45.8587H90.7173V13.2935H81.413Z" fill="black"/>
<path d="M65.1303 0.5H74.4347C74.4347 0.5 73.251 37.8942 65.1303 49.1152C57.1198 60.1841 40.7064 72.6087 40.7064 72.6087L33.7281 64.4674C33.7281 64.4674 53.6295 51.0461 59.3151 41.2065C65.0598 31.2646 65.1303 0.5 65.1303 0.5Z" fill="#E11E28" stroke="white"/>
<path d="M65.1303 0.5C65.1303 0.5 68.0674 36.5291 59.3151 49.3478C50.5629 62.1666 40.7064 72.6087 40.7064 72.6087L33.7281 64.4674C33.7281 64.4674 52.9317 51.0461 58.6173 41.2065C64.362 31.2646 65.1303 0.5 65.1303 0.5Z" fill="white"/>
<path d="M65.4752 0.267334C65.4752 0.267334 68.4122 36.2964 59.66 49.1152C50.9077 61.9339 41.0513 72.376 41.0513 72.376L34.073 64.2347C34.073 64.2347 53.2765 50.8134 58.9621 40.9739C64.7069 31.032 65.4752 0.267334 65.4752 0.267334Z" fill="url(#paint0_linear_16_836)"/>
<defs>
<linearGradient id="paint0_linear_16_836" x1="34.073" y1="36.3217" x2="65.9489" y2="36.3217" gradientUnits="userSpaceOnUse">
<stop stop-color="#808080"/>
<stop offset="0.25" stop-color="#808080"/>
<stop offset="0.5" stop-color="#808080" stop-opacity="0.644068"/>
<stop offset="1" stop-color="#808080"/>
</linearGradient>
</defs>
</svg>
