<svg width="92" height="79" viewBox="0 0 92 79" fill="none" xmlns="http://www.w3.org/2000/svg">
<path d="M87.0621 51.7069C87.0621 42.9807 79.9554 35.9069 71.1887 35.9069C68.1677 35.9069 65.3444 36.7472 62.9406 38.2053L59.003 28.5656L61.7286 27.4484C61.7286 27.4484 68.9438 26.6502 70.5473 25.8523C72.1507 25.0544 73.1127 25.3736 75.0368 25.8523C76.9608 26.3311 80.4881 24.0969 79.5261 23.1393C78.564 22.1817 74.5555 20.905 71.3489 21.8626C68.1422 22.8202 60.1254 23.1393 60.1254 23.1393C60.1254 23.1393 58.6824 19.6281 58.522 19.309C58.3616 18.9899 62.0492 18.1922 63.6527 16.2768C65.2561 14.3614 66.0577 13.0848 66.0577 13.0848L67.3406 12.9251C67.3406 12.9251 68.7836 6.3822 61.8891 4.94559C54.9945 3.50899 54.6739 7.02018 54.6739 7.02018L54.8343 8.1372L54.0325 8.93533C54.0325 8.93533 50.1844 5.4239 39.1211 8.1372C28.0579 10.8505 24.0496 20.2666 23.8892 24.0969C23.7288 27.9272 29.5009 30.6402 29.5009 30.6402L31.1043 36.0666L29.3602 39.0729C26.6961 37.085 23.3868 35.9069 19.8008 35.9069C10.9899 35.9069 3.84735 43.0164 3.84735 51.7866C3.84735 60.3148 10.6017 67.2706 19.0759 67.6481L19.0783 67.6673L19.757 67.6651C19.7717 67.6651 19.7861 67.6663 19.8008 67.6663C19.8193 67.6663 19.8376 67.6649 19.8564 67.6649L71.8311 67.5091L71.8299 67.4909C80.299 67.1552 87.0621 60.219 87.0621 51.7069ZM35.4334 36.705L32.5474 30.002L35.9145 30.1617L38.3195 33.0344L35.4334 36.705ZM51.2813 34.6302L51.3013 34.6314C51.43 34.63 52.1524 34.4832 52.5894 31.4384C53.0704 28.0868 37.5179 21.0645 37.5179 21.0645C37.5179 21.0645 43.29 19.4687 46.1761 19.7878C49.0622 20.1069 51.9482 18.8302 51.9482 18.8302C51.9482 18.8302 51.9482 18.8302 52.7499 19.7878C53.5515 20.7454 58.3616 27.2887 58.3616 27.2887L57.079 27.9274L59.484 35.109L51.3013 34.6314C51.2883 34.6316 51.2813 34.6302 51.2813 34.6302Z" fill="#132959"/>
<path d="M17.2813 69.717H18.3338V71.7845H18.3477C18.4523 71.6039 18.5637 71.4376 18.6753 71.2709L19.7345 69.717H21.0445L19.4904 71.7078L21.121 74.3924H19.8874L18.7306 72.3738L18.3335 72.8663V74.3924H17.2811L17.2813 69.717Z" fill="#132959"/>
<path d="M21.5255 72.1172C21.5255 71.6176 21.5185 71.2918 21.4976 71.0004H22.4038L22.4457 71.6317H22.4734C22.6477 71.1321 23.059 70.9241 23.3933 70.9241C23.4907 70.9241 23.5395 70.931 23.6162 70.9449V71.9369C23.5325 71.9231 23.4491 71.9094 23.3305 71.9094C22.9402 71.9094 22.6754 72.1105 22.6056 72.4433C22.5917 72.5127 22.5847 72.5888 22.5847 72.6791V74.3924H21.5255V72.1172Z" fill="#132959"/>
<path d="M24.9332 73.0326C24.9683 73.4698 25.4 73.6778 25.895 73.6778C26.2574 73.6778 26.5501 73.6292 26.8359 73.5323L26.9751 74.2466C26.6269 74.3922 26.2016 74.4616 25.7416 74.4616C24.5847 74.4616 23.9226 73.7956 23.9226 72.7344C23.9226 71.874 24.4664 70.9238 25.6439 70.9238C26.7449 70.9238 27.1629 71.777 27.1629 72.6163C27.1629 72.7968 27.142 72.9563 27.1281 73.0324H24.9332V73.0326ZM26.1807 72.3116C26.1807 72.055 26.0691 71.6248 25.5883 71.6248C25.1352 71.6248 24.9541 72.0341 24.9262 72.3116H26.1807Z" fill="#132959"/>
<path d="M28.3203 70.5841C27.9857 70.5841 27.7698 70.3485 27.7698 70.0569C27.7698 69.7586 27.993 69.5298 28.3345 69.5298C28.676 69.5298 28.885 69.7586 28.8917 70.0569C28.8917 70.3485 28.676 70.5841 28.3273 70.5841H28.3203ZM27.7977 74.3924V71.0004H28.8569V74.3924H27.7977Z" fill="#132959"/>
<path d="M29.4352 73.782L30.5084 72.4503C30.7037 72.2283 30.8569 72.055 31.0522 71.8537V71.8398H29.5538V71.0005H32.3415V71.6385L31.317 72.9219C31.1289 73.1366 30.9545 73.3518 30.7595 73.539V73.5531H32.3973V74.3925H29.4357V73.782H29.4352Z" fill="#132959"/>
<path d="M34.4175 69.7865C34.6963 69.7312 35.254 69.6824 35.7906 69.6824C36.4385 69.6824 36.8358 69.7449 37.1773 69.9462C37.5049 70.1195 37.7348 70.4386 37.7348 70.8688C37.7348 71.2782 37.4907 71.6595 36.9681 71.8609V71.8747C37.5047 72.0136 37.902 72.4227 37.902 73.0265C37.902 73.4564 37.7067 73.7897 37.4142 74.0185C37.0727 74.289 36.5013 74.4418 35.5674 74.4418C35.0448 74.4418 34.6544 74.4068 34.4175 74.3723V69.7865ZM35.47 71.5693H35.8182C36.383 71.5693 36.6754 71.3404 36.6754 70.9935C36.6754 70.6397 36.4036 70.4525 35.9226 70.4525C35.6857 70.4525 35.5534 70.4664 35.4698 70.4872V71.5693H35.47ZM35.47 73.6431C35.5746 73.6642 35.6999 73.6642 35.881 73.6642C36.362 73.6642 36.7872 73.4768 36.7872 72.9843C36.7872 72.5125 36.362 72.3253 35.8324 72.3253H35.47V73.6431Z" fill="#132959"/>
<path d="M38.5922 72.1172C38.5922 71.6176 38.5853 71.2918 38.5643 71.0004H39.4706L39.5124 71.6317H39.5401C39.7144 71.1321 40.1257 70.9241 40.46 70.9241C40.5574 70.9241 40.6062 70.931 40.6829 70.9449V71.9369C40.5993 71.9231 40.5158 71.9094 40.3972 71.9094C40.0069 71.9094 39.7421 72.1105 39.6723 72.4433C39.6584 72.5127 39.6514 72.5888 39.6514 72.6791V74.3924H38.5922V72.1172Z" fill="#132959"/>
<path d="M41.9997 73.0326C42.0349 73.4698 42.4666 73.6778 42.9615 73.6778C43.324 73.6778 43.6167 73.6292 43.9024 73.5323L44.0416 74.2466C43.6934 74.3922 43.2682 74.4616 42.8081 74.4616C41.6512 74.4616 40.9891 73.7956 40.9891 72.7344C40.9891 71.874 41.5329 70.9238 42.7104 70.9238C43.8115 70.9238 44.2295 71.777 44.2295 72.6163C44.2295 72.7968 44.2085 72.9563 44.1946 73.0324H41.9997V73.0326ZM43.2472 72.3116C43.2472 72.055 43.1356 71.6248 42.6549 71.6248C42.2018 71.6248 42.0207 72.0341 41.9928 72.3116H43.2472Z" fill="#132959"/>
<path d="M45.3868 70.5841C45.0523 70.5841 44.8363 70.3485 44.8363 70.0569C44.8363 69.7586 45.0595 69.5298 45.401 69.5298C45.7425 69.5298 45.9515 69.7586 45.9583 70.0569C45.9583 70.3485 45.7425 70.5841 45.3938 70.5841H45.3868ZM44.8642 74.3924V71.0004H45.9234V74.3924H44.8642Z" fill="#132959"/>
<path d="M46.502 73.782L47.5752 72.4503C47.7704 72.2283 47.9236 72.055 48.1189 71.8537V71.8398H46.6206V71.0005H49.4083V71.6385L48.3837 72.9219C48.1957 73.1366 48.0213 73.3518 47.8262 73.539V73.5531H49.4641V74.3925H46.5025V73.782H46.502Z" fill="#132959"/>
<path d="M50.0417 69.4604H51.1009V71.4096H51.1149C51.2265 71.2571 51.366 71.1391 51.5331 71.0558C51.6933 70.9725 51.8886 70.9239 52.0836 70.9239C52.7597 70.9239 53.2751 71.3885 53.2751 72.4153V74.3922H52.2159V72.5261C52.2159 72.0823 52.0627 71.7771 51.6654 71.7771C51.3869 71.7771 51.2125 71.9573 51.1358 72.1515C51.1081 72.214 51.1009 72.3042 51.1009 72.3803V74.392H50.0417V69.4604Z" fill="#132959"/>
<path d="M58.363 72.4155H56.6345V73.5253H58.565V74.3924H55.5753V69.717H58.4676V70.5841H56.6345V71.5551H58.363V72.4155Z" fill="#132959"/>
<path d="M60.3419 69.4604H59.2827V74.3924H60.3419V69.4604Z" fill="#132959"/>
<path d="M61.7217 70.5841C61.3872 70.5841 61.1712 70.3485 61.1712 70.0569C61.1712 69.7586 61.3944 69.5298 61.7359 69.5298C62.0774 69.5298 62.2864 69.7586 62.2932 70.0569C62.2932 70.3485 62.0774 70.5841 61.7287 70.5841H61.7217ZM61.1991 74.3924V71.0004H62.2583V74.3924H61.1991Z" fill="#132959"/>
<path d="M64.2932 70.0776V71.0003H65.0527V71.7771H64.2932V73.0049C64.2932 73.4141 64.3978 73.6013 64.7112 73.6013C64.8574 73.6013 64.9272 73.5946 65.0251 73.5737L65.0318 74.3714C64.8993 74.42 64.6417 74.4617 64.3488 74.4617C64.0075 74.4617 63.7218 74.3436 63.5474 74.1703C63.3521 73.969 63.2547 73.6429 63.2547 73.1644V71.7771H62.8016V71.0003H63.2547V70.362L64.2932 70.0776Z" fill="#132959"/>
<path d="M66.4466 73.0326C66.4815 73.4698 66.9132 73.6778 67.4082 73.6778C67.7706 73.6778 68.0633 73.6292 68.349 73.5323L68.4883 74.2466C68.14 74.3922 67.7148 74.4616 67.2547 74.4616C66.0979 74.4616 65.4358 73.7956 65.4358 72.7344C65.4358 71.874 65.9796 70.9238 67.1571 70.9238C68.2581 70.9238 68.6761 71.777 68.6761 72.6163C68.6761 72.7968 68.6552 72.9563 68.6413 73.0324H66.4466V73.0326ZM67.6941 72.3116C67.6941 72.055 67.5825 71.6248 67.1018 71.6248C66.6487 71.6248 66.4676 72.0341 66.4397 72.3116H67.6941Z" fill="#132959"/>
<path d="M69.3036 73.4698C69.4989 73.5876 69.903 73.7195 70.2166 73.7195C70.5372 73.7195 70.6697 73.6153 70.6697 73.442C70.6697 73.2687 70.5651 73.1782 70.1747 73.0535C69.464 72.8179 69.1923 72.4363 69.199 72.0408C69.199 71.4029 69.7428 70.9241 70.586 70.9241C70.9831 70.9241 71.3318 71.0213 71.5408 71.1254L71.3595 71.8469C71.2063 71.7706 70.9066 71.6595 70.6209 71.6595C70.363 71.6595 70.2166 71.7639 70.2166 71.9302C70.2166 72.0897 70.3491 72.1799 70.7671 72.3185C71.4153 72.5407 71.68 72.8665 71.687 73.3592C71.687 73.9974 71.1921 74.4621 70.2166 74.4621C69.7707 74.4621 69.3734 74.3579 69.1155 74.2191L69.3036 73.4698Z" fill="#132959"/>
<path d="M16.8763 46.3716H22.0024V55.8846H22.0702C22.5794 55.0546 23.1227 54.2883 23.6658 53.5223L28.826 46.3716H35.2083L27.6377 55.5334L35.5816 67.8876H29.5728L23.9375 58.5981L22.0024 60.8647V67.8878H16.8763V46.3716Z" fill="white"/>
<path d="M16.8763 46.3716H22.0024V55.8846H22.0702C22.5794 55.0546 23.1227 54.2883 23.6658 53.5223L28.826 46.3716H35.2083L27.6377 55.5334L35.5816 67.8876H29.5728L23.9375 58.5981L22.0024 60.8647V67.8878H16.8763V46.3716Z" stroke="white"/>
<path d="M37.3815 46.6907C38.7394 46.4355 41.4552 46.2119 44.0695 46.2119C47.2266 46.2119 49.1617 46.4992 50.8253 47.4249C52.4208 48.2231 53.5411 49.6915 53.5411 51.6706C53.5411 53.5541 52.353 55.3098 49.807 56.2356V56.2995C52.4208 56.938 54.3559 58.8215 54.3559 61.5987C54.3559 63.5783 53.4055 65.1104 51.9795 66.1637C50.3162 67.4088 47.5323 68.1112 42.9831 68.1112C40.4372 68.1112 38.536 67.9515 37.3818 67.7918L37.3815 46.6907ZM42.5077 54.8952H44.2052C46.9551 54.8952 48.3808 53.8419 48.3808 52.2456C48.3808 50.6175 47.0568 49.7557 44.7143 49.7557C43.5601 49.7557 42.9151 49.8196 42.5077 49.9153V54.8952ZM42.5077 64.4403C43.0168 64.5358 43.6279 64.5358 44.5106 64.5358C46.8529 64.5358 48.9239 63.6738 48.9239 61.4074C48.9239 59.2369 46.8531 58.3748 44.273 58.3748H42.5077V64.4403Z" fill="white"/>
<path d="M37.3815 46.6907C38.7394 46.4355 41.4552 46.2119 44.0695 46.2119C47.2266 46.2119 49.1617 46.4992 50.8253 47.4249C52.4208 48.2231 53.5411 49.6915 53.5411 51.6706C53.5411 53.5541 52.353 55.3098 49.807 56.2356V56.2995C52.4208 56.938 54.3559 58.8215 54.3559 61.5987C54.3559 63.5783 53.4055 65.1104 51.9795 66.1637C50.3162 67.4088 47.5323 68.1112 42.9831 68.1112C40.4372 68.1112 38.536 67.9515 37.3818 67.7918L37.3815 46.6907ZM42.5077 54.8952H44.2052C46.9551 54.8952 48.3808 53.8419 48.3808 52.2456C48.3808 50.6175 47.0568 49.7557 44.7143 49.7557C43.5601 49.7557 42.9151 49.8196 42.5077 49.9153V54.8952ZM42.5077 64.4403C43.0168 64.5358 43.6279 64.5358 44.5106 64.5358C46.8529 64.5358 48.9239 63.6738 48.9239 61.4074C48.9239 59.2369 46.8531 58.3748 44.273 58.3748H42.5077V64.4403Z" stroke="white"/>
<path d="M71.1604 58.7897H62.741V63.8974H72.1448V67.8878H57.5807V46.3716H71.6695V50.362H62.741V54.8313H71.1604V58.7897Z" fill="white"/>
<path d="M71.1604 58.7897H62.741V63.8974H72.1448V67.8878H57.5807V46.3716H71.6695V50.362H62.741V54.8313H71.1604V58.7897Z" stroke="white"/>
</svg>
