<svg width="100" height="55" viewBox="0 0 100 55" fill="none" xmlns="http://www.w3.org/2000/svg">
<path fill-rule="evenodd" clip-rule="evenodd" d="M0 0H14.1121V14.1338H0V0Z" fill="#DA251D"/>
<path fill-rule="evenodd" clip-rule="evenodd" d="M26.2159 0H40.328V14.1338H26.2159V0Z" fill="#DA251D"/>
<path fill-rule="evenodd" clip-rule="evenodd" d="M0 26.2561H14.1121V40.3899H0V26.2561Z" fill="#DA251D"/>
<path fill-rule="evenodd" clip-rule="evenodd" d="M26.4272 54.5238H33.9326V43.0896H44.7677V37.7431H33.9326V31.6026H45.2434V26.2561H26.4272V54.5238Z" fill="#1F1A17"/>
<path fill-rule="evenodd" clip-rule="evenodd" d="M49.6829 54.5238H69.979V49.1772H57.1882V42.772H68.8162V37.4255H57.1882V31.6026H69.5033V26.2561H49.6829V54.5238Z" fill="#1F1A17"/>
<path fill-rule="evenodd" clip-rule="evenodd" d="M99.7367 38.0077H88.0558V43.3542H92.4956V48.9124C91.8085 49.23 90.8042 49.3889 89.8 49.3889C84.3032 49.3889 80.3919 46.0539 80.3919 40.4957C80.3919 33.9316 85.4131 31.3907 91.4914 31.3907C93.2884 31.3907 96.0368 31.8142 98.3624 33.1905L98.9967 27.05C96.2483 25.9913 92.337 25.7795 90.4343 25.7795C80.1276 25.7795 72.6752 29.8556 72.6752 40.4957C72.6752 51.1887 81.3433 55 88.8486 55C91.4385 55 94.9798 54.8942 99.7367 53.6766V38.0077Z" fill="#1F1A17"/>
</svg>
